%TF.GenerationSoftware,KiCad,Pcbnew,(6.0.1-0)*%
%TF.CreationDate,2022-02-23T15:31:50-05:00*%
%TF.ProjectId,PCB - Controls,50434220-2d20-4436-9f6e-74726f6c732e,rev?*%
%TF.SameCoordinates,Original*%
%TF.FileFunction,Legend,Top*%
%TF.FilePolarity,Positive*%
%FSLAX46Y46*%
G04 Gerber Fmt 4.6, Leading zero omitted, Abs format (unit mm)*
G04 Created by KiCad (PCBNEW (6.0.1-0)) date 2022-02-23 15:31:50*
%MOMM*%
%LPD*%
G01*
G04 APERTURE LIST*
%ADD10C,0.150000*%
%ADD11C,0.254000*%
%ADD12C,0.120000*%
%ADD13C,0.100000*%
%ADD14C,0.200000*%
G04 APERTURE END LIST*
D10*
%TO.C,R6*%
X161443333Y-88732380D02*
X161110000Y-88256190D01*
X160871904Y-88732380D02*
X160871904Y-87732380D01*
X161252857Y-87732380D01*
X161348095Y-87780000D01*
X161395714Y-87827619D01*
X161443333Y-87922857D01*
X161443333Y-88065714D01*
X161395714Y-88160952D01*
X161348095Y-88208571D01*
X161252857Y-88256190D01*
X160871904Y-88256190D01*
X162300476Y-87732380D02*
X162110000Y-87732380D01*
X162014761Y-87780000D01*
X161967142Y-87827619D01*
X161871904Y-87970476D01*
X161824285Y-88160952D01*
X161824285Y-88541904D01*
X161871904Y-88637142D01*
X161919523Y-88684761D01*
X162014761Y-88732380D01*
X162205238Y-88732380D01*
X162300476Y-88684761D01*
X162348095Y-88637142D01*
X162395714Y-88541904D01*
X162395714Y-88303809D01*
X162348095Y-88208571D01*
X162300476Y-88160952D01*
X162205238Y-88113333D01*
X162014761Y-88113333D01*
X161919523Y-88160952D01*
X161871904Y-88208571D01*
X161824285Y-88303809D01*
%TO.C,R5*%
X169063333Y-81112380D02*
X168730000Y-80636190D01*
X168491904Y-81112380D02*
X168491904Y-80112380D01*
X168872857Y-80112380D01*
X168968095Y-80160000D01*
X169015714Y-80207619D01*
X169063333Y-80302857D01*
X169063333Y-80445714D01*
X169015714Y-80540952D01*
X168968095Y-80588571D01*
X168872857Y-80636190D01*
X168491904Y-80636190D01*
X169968095Y-80112380D02*
X169491904Y-80112380D01*
X169444285Y-80588571D01*
X169491904Y-80540952D01*
X169587142Y-80493333D01*
X169825238Y-80493333D01*
X169920476Y-80540952D01*
X169968095Y-80588571D01*
X170015714Y-80683809D01*
X170015714Y-80921904D01*
X169968095Y-81017142D01*
X169920476Y-81064761D01*
X169825238Y-81112380D01*
X169587142Y-81112380D01*
X169491904Y-81064761D01*
X169444285Y-81017142D01*
%TO.C,R4*%
X172552380Y-97636666D02*
X172076190Y-97970000D01*
X172552380Y-98208095D02*
X171552380Y-98208095D01*
X171552380Y-97827142D01*
X171600000Y-97731904D01*
X171647619Y-97684285D01*
X171742857Y-97636666D01*
X171885714Y-97636666D01*
X171980952Y-97684285D01*
X172028571Y-97731904D01*
X172076190Y-97827142D01*
X172076190Y-98208095D01*
X171885714Y-96779523D02*
X172552380Y-96779523D01*
X171504761Y-97017619D02*
X172219047Y-97255714D01*
X172219047Y-96636666D01*
%TO.C,J6*%
X146982380Y-61293333D02*
X147696666Y-61293333D01*
X147839523Y-61340952D01*
X147934761Y-61436190D01*
X147982380Y-61579047D01*
X147982380Y-61674285D01*
X146982380Y-60388571D02*
X146982380Y-60579047D01*
X147030000Y-60674285D01*
X147077619Y-60721904D01*
X147220476Y-60817142D01*
X147410952Y-60864761D01*
X147791904Y-60864761D01*
X147887142Y-60817142D01*
X147934761Y-60769523D01*
X147982380Y-60674285D01*
X147982380Y-60483809D01*
X147934761Y-60388571D01*
X147887142Y-60340952D01*
X147791904Y-60293333D01*
X147553809Y-60293333D01*
X147458571Y-60340952D01*
X147410952Y-60388571D01*
X147363333Y-60483809D01*
X147363333Y-60674285D01*
X147410952Y-60769523D01*
X147458571Y-60817142D01*
X147553809Y-60864761D01*
%TO.C,REF\u002A\u002A*%
X120586666Y-110552380D02*
X120253333Y-110076190D01*
X120015238Y-110552380D02*
X120015238Y-109552380D01*
X120396190Y-109552380D01*
X120491428Y-109600000D01*
X120539047Y-109647619D01*
X120586666Y-109742857D01*
X120586666Y-109885714D01*
X120539047Y-109980952D01*
X120491428Y-110028571D01*
X120396190Y-110076190D01*
X120015238Y-110076190D01*
X121015238Y-110028571D02*
X121348571Y-110028571D01*
X121491428Y-110552380D02*
X121015238Y-110552380D01*
X121015238Y-109552380D01*
X121491428Y-109552380D01*
X122253333Y-110028571D02*
X121920000Y-110028571D01*
X121920000Y-110552380D02*
X121920000Y-109552380D01*
X122396190Y-109552380D01*
X122920000Y-109552380D02*
X122920000Y-109790476D01*
X122681904Y-109695238D02*
X122920000Y-109790476D01*
X123158095Y-109695238D01*
X122777142Y-109980952D02*
X122920000Y-109790476D01*
X123062857Y-109980952D01*
X123681904Y-109552380D02*
X123681904Y-109790476D01*
X123443809Y-109695238D02*
X123681904Y-109790476D01*
X123920000Y-109695238D01*
X123539047Y-109980952D02*
X123681904Y-109790476D01*
X123824761Y-109980952D01*
%TO.C,D2*%
X133881904Y-84342380D02*
X133881904Y-83342380D01*
X134120000Y-83342380D01*
X134262857Y-83390000D01*
X134358095Y-83485238D01*
X134405714Y-83580476D01*
X134453333Y-83770952D01*
X134453333Y-83913809D01*
X134405714Y-84104285D01*
X134358095Y-84199523D01*
X134262857Y-84294761D01*
X134120000Y-84342380D01*
X133881904Y-84342380D01*
X134834285Y-83437619D02*
X134881904Y-83390000D01*
X134977142Y-83342380D01*
X135215238Y-83342380D01*
X135310476Y-83390000D01*
X135358095Y-83437619D01*
X135405714Y-83532857D01*
X135405714Y-83628095D01*
X135358095Y-83770952D01*
X134786666Y-84342380D01*
X135405714Y-84342380D01*
X129278095Y-84712380D02*
X129278095Y-83712380D01*
X129849523Y-84712380D02*
X129420952Y-84140952D01*
X129849523Y-83712380D02*
X129278095Y-84283809D01*
%TO.C,R1*%
X163983333Y-78572380D02*
X163650000Y-78096190D01*
X163411904Y-78572380D02*
X163411904Y-77572380D01*
X163792857Y-77572380D01*
X163888095Y-77620000D01*
X163935714Y-77667619D01*
X163983333Y-77762857D01*
X163983333Y-77905714D01*
X163935714Y-78000952D01*
X163888095Y-78048571D01*
X163792857Y-78096190D01*
X163411904Y-78096190D01*
X164935714Y-78572380D02*
X164364285Y-78572380D01*
X164650000Y-78572380D02*
X164650000Y-77572380D01*
X164554761Y-77715238D01*
X164459523Y-77810476D01*
X164364285Y-77858095D01*
%TO.C,J2*%
X136826666Y-60412380D02*
X136826666Y-61126666D01*
X136779047Y-61269523D01*
X136683809Y-61364761D01*
X136540952Y-61412380D01*
X136445714Y-61412380D01*
X137255238Y-60507619D02*
X137302857Y-60460000D01*
X137398095Y-60412380D01*
X137636190Y-60412380D01*
X137731428Y-60460000D01*
X137779047Y-60507619D01*
X137826666Y-60602857D01*
X137826666Y-60698095D01*
X137779047Y-60840952D01*
X137207619Y-61412380D01*
X137826666Y-61412380D01*
%TO.C,REF\u002A\u002A*%
X120586666Y-49592380D02*
X120253333Y-49116190D01*
X120015238Y-49592380D02*
X120015238Y-48592380D01*
X120396190Y-48592380D01*
X120491428Y-48640000D01*
X120539047Y-48687619D01*
X120586666Y-48782857D01*
X120586666Y-48925714D01*
X120539047Y-49020952D01*
X120491428Y-49068571D01*
X120396190Y-49116190D01*
X120015238Y-49116190D01*
X121015238Y-49068571D02*
X121348571Y-49068571D01*
X121491428Y-49592380D02*
X121015238Y-49592380D01*
X121015238Y-48592380D01*
X121491428Y-48592380D01*
X122253333Y-49068571D02*
X121920000Y-49068571D01*
X121920000Y-49592380D02*
X121920000Y-48592380D01*
X122396190Y-48592380D01*
X122920000Y-48592380D02*
X122920000Y-48830476D01*
X122681904Y-48735238D02*
X122920000Y-48830476D01*
X123158095Y-48735238D01*
X122777142Y-49020952D02*
X122920000Y-48830476D01*
X123062857Y-49020952D01*
X123681904Y-48592380D02*
X123681904Y-48830476D01*
X123443809Y-48735238D02*
X123681904Y-48830476D01*
X123920000Y-48735238D01*
X123539047Y-49020952D02*
X123681904Y-48830476D01*
X123824761Y-49020952D01*
D11*
%TO.C,Q1*%
X158175476Y-68700952D02*
X158115000Y-68821904D01*
X157994047Y-68942857D01*
X157812619Y-69124285D01*
X157752142Y-69245238D01*
X157752142Y-69366190D01*
X158054523Y-69305714D02*
X157994047Y-69426666D01*
X157873095Y-69547619D01*
X157631190Y-69608095D01*
X157207857Y-69608095D01*
X156965952Y-69547619D01*
X156845000Y-69426666D01*
X156784523Y-69305714D01*
X156784523Y-69063809D01*
X156845000Y-68942857D01*
X156965952Y-68821904D01*
X157207857Y-68761428D01*
X157631190Y-68761428D01*
X157873095Y-68821904D01*
X157994047Y-68942857D01*
X158054523Y-69063809D01*
X158054523Y-69305714D01*
X158054523Y-67551904D02*
X158054523Y-68277619D01*
X158054523Y-67914761D02*
X156784523Y-67914761D01*
X156965952Y-68035714D01*
X157086904Y-68156666D01*
X157147380Y-68277619D01*
D10*
%TO.C,REF\u002A\u002A*%
X173926666Y-49592380D02*
X173593333Y-49116190D01*
X173355238Y-49592380D02*
X173355238Y-48592380D01*
X173736190Y-48592380D01*
X173831428Y-48640000D01*
X173879047Y-48687619D01*
X173926666Y-48782857D01*
X173926666Y-48925714D01*
X173879047Y-49020952D01*
X173831428Y-49068571D01*
X173736190Y-49116190D01*
X173355238Y-49116190D01*
X174355238Y-49068571D02*
X174688571Y-49068571D01*
X174831428Y-49592380D02*
X174355238Y-49592380D01*
X174355238Y-48592380D01*
X174831428Y-48592380D01*
X175593333Y-49068571D02*
X175260000Y-49068571D01*
X175260000Y-49592380D02*
X175260000Y-48592380D01*
X175736190Y-48592380D01*
X176260000Y-48592380D02*
X176260000Y-48830476D01*
X176021904Y-48735238D02*
X176260000Y-48830476D01*
X176498095Y-48735238D01*
X176117142Y-49020952D02*
X176260000Y-48830476D01*
X176402857Y-49020952D01*
X177021904Y-48592380D02*
X177021904Y-48830476D01*
X176783809Y-48735238D02*
X177021904Y-48830476D01*
X177260000Y-48735238D01*
X176879047Y-49020952D02*
X177021904Y-48830476D01*
X177164761Y-49020952D01*
%TO.C,D3*%
X133881904Y-102122380D02*
X133881904Y-101122380D01*
X134120000Y-101122380D01*
X134262857Y-101170000D01*
X134358095Y-101265238D01*
X134405714Y-101360476D01*
X134453333Y-101550952D01*
X134453333Y-101693809D01*
X134405714Y-101884285D01*
X134358095Y-101979523D01*
X134262857Y-102074761D01*
X134120000Y-102122380D01*
X133881904Y-102122380D01*
X134786666Y-101122380D02*
X135405714Y-101122380D01*
X135072380Y-101503333D01*
X135215238Y-101503333D01*
X135310476Y-101550952D01*
X135358095Y-101598571D01*
X135405714Y-101693809D01*
X135405714Y-101931904D01*
X135358095Y-102027142D01*
X135310476Y-102074761D01*
X135215238Y-102122380D01*
X134929523Y-102122380D01*
X134834285Y-102074761D01*
X134786666Y-102027142D01*
X129278095Y-102492380D02*
X129278095Y-101492380D01*
X129849523Y-102492380D02*
X129420952Y-101920952D01*
X129849523Y-101492380D02*
X129278095Y-102063809D01*
%TO.C,R2*%
X163983333Y-92512380D02*
X163650000Y-92036190D01*
X163411904Y-92512380D02*
X163411904Y-91512380D01*
X163792857Y-91512380D01*
X163888095Y-91560000D01*
X163935714Y-91607619D01*
X163983333Y-91702857D01*
X163983333Y-91845714D01*
X163935714Y-91940952D01*
X163888095Y-91988571D01*
X163792857Y-92036190D01*
X163411904Y-92036190D01*
X164364285Y-91607619D02*
X164411904Y-91560000D01*
X164507142Y-91512380D01*
X164745238Y-91512380D01*
X164840476Y-91560000D01*
X164888095Y-91607619D01*
X164935714Y-91702857D01*
X164935714Y-91798095D01*
X164888095Y-91940952D01*
X164316666Y-92512380D01*
X164935714Y-92512380D01*
%TO.C,REF\u002A\u002A*%
X173926666Y-110552380D02*
X173593333Y-110076190D01*
X173355238Y-110552380D02*
X173355238Y-109552380D01*
X173736190Y-109552380D01*
X173831428Y-109600000D01*
X173879047Y-109647619D01*
X173926666Y-109742857D01*
X173926666Y-109885714D01*
X173879047Y-109980952D01*
X173831428Y-110028571D01*
X173736190Y-110076190D01*
X173355238Y-110076190D01*
X174355238Y-110028571D02*
X174688571Y-110028571D01*
X174831428Y-110552380D02*
X174355238Y-110552380D01*
X174355238Y-109552380D01*
X174831428Y-109552380D01*
X175593333Y-110028571D02*
X175260000Y-110028571D01*
X175260000Y-110552380D02*
X175260000Y-109552380D01*
X175736190Y-109552380D01*
X176260000Y-109552380D02*
X176260000Y-109790476D01*
X176021904Y-109695238D02*
X176260000Y-109790476D01*
X176498095Y-109695238D01*
X176117142Y-109980952D02*
X176260000Y-109790476D01*
X176402857Y-109980952D01*
X177021904Y-109552380D02*
X177021904Y-109790476D01*
X176783809Y-109695238D02*
X177021904Y-109790476D01*
X177260000Y-109695238D01*
X176879047Y-109980952D02*
X177021904Y-109790476D01*
X177164761Y-109980952D01*
%TO.C,D1*%
X133881904Y-66562380D02*
X133881904Y-65562380D01*
X134120000Y-65562380D01*
X134262857Y-65610000D01*
X134358095Y-65705238D01*
X134405714Y-65800476D01*
X134453333Y-65990952D01*
X134453333Y-66133809D01*
X134405714Y-66324285D01*
X134358095Y-66419523D01*
X134262857Y-66514761D01*
X134120000Y-66562380D01*
X133881904Y-66562380D01*
X135405714Y-66562380D02*
X134834285Y-66562380D01*
X135120000Y-66562380D02*
X135120000Y-65562380D01*
X135024761Y-65705238D01*
X134929523Y-65800476D01*
X134834285Y-65848095D01*
X129278095Y-66932380D02*
X129278095Y-65932380D01*
X129849523Y-66932380D02*
X129420952Y-66360952D01*
X129849523Y-65932380D02*
X129278095Y-66503809D01*
%TO.C,R3*%
X161092380Y-102716666D02*
X160616190Y-103050000D01*
X161092380Y-103288095D02*
X160092380Y-103288095D01*
X160092380Y-102907142D01*
X160140000Y-102811904D01*
X160187619Y-102764285D01*
X160282857Y-102716666D01*
X160425714Y-102716666D01*
X160520952Y-102764285D01*
X160568571Y-102811904D01*
X160616190Y-102907142D01*
X160616190Y-103288095D01*
X160092380Y-102383333D02*
X160092380Y-101764285D01*
X160473333Y-102097619D01*
X160473333Y-101954761D01*
X160520952Y-101859523D01*
X160568571Y-101811904D01*
X160663809Y-101764285D01*
X160901904Y-101764285D01*
X160997142Y-101811904D01*
X161044761Y-101859523D01*
X161092380Y-101954761D01*
X161092380Y-102240476D01*
X161044761Y-102335714D01*
X160997142Y-102383333D01*
%TO.C,J8*%
X164766666Y-63162380D02*
X164766666Y-63876666D01*
X164719047Y-64019523D01*
X164623809Y-64114761D01*
X164480952Y-64162380D01*
X164385714Y-64162380D01*
X165385714Y-63590952D02*
X165290476Y-63543333D01*
X165242857Y-63495714D01*
X165195238Y-63400476D01*
X165195238Y-63352857D01*
X165242857Y-63257619D01*
X165290476Y-63210000D01*
X165385714Y-63162380D01*
X165576190Y-63162380D01*
X165671428Y-63210000D01*
X165719047Y-63257619D01*
X165766666Y-63352857D01*
X165766666Y-63400476D01*
X165719047Y-63495714D01*
X165671428Y-63543333D01*
X165576190Y-63590952D01*
X165385714Y-63590952D01*
X165290476Y-63638571D01*
X165242857Y-63686190D01*
X165195238Y-63781428D01*
X165195238Y-63971904D01*
X165242857Y-64067142D01*
X165290476Y-64114761D01*
X165385714Y-64162380D01*
X165576190Y-64162380D01*
X165671428Y-64114761D01*
X165719047Y-64067142D01*
X165766666Y-63971904D01*
X165766666Y-63781428D01*
X165719047Y-63686190D01*
X165671428Y-63638571D01*
X165576190Y-63590952D01*
%TO.C,J4*%
X136826666Y-95972380D02*
X136826666Y-96686666D01*
X136779047Y-96829523D01*
X136683809Y-96924761D01*
X136540952Y-96972380D01*
X136445714Y-96972380D01*
X137731428Y-96305714D02*
X137731428Y-96972380D01*
X137493333Y-95924761D02*
X137255238Y-96639047D01*
X137874285Y-96639047D01*
%TO.C,J5*%
X129206666Y-58082380D02*
X129206666Y-58796666D01*
X129159047Y-58939523D01*
X129063809Y-59034761D01*
X128920952Y-59082380D01*
X128825714Y-59082380D01*
X130159047Y-58082380D02*
X129682857Y-58082380D01*
X129635238Y-58558571D01*
X129682857Y-58510952D01*
X129778095Y-58463333D01*
X130016190Y-58463333D01*
X130111428Y-58510952D01*
X130159047Y-58558571D01*
X130206666Y-58653809D01*
X130206666Y-58891904D01*
X130159047Y-58987142D01*
X130111428Y-59034761D01*
X130016190Y-59082380D01*
X129778095Y-59082380D01*
X129682857Y-59034761D01*
X129635238Y-58987142D01*
D11*
%TO.C,Q3*%
X158175476Y-104260952D02*
X158115000Y-104381904D01*
X157994047Y-104502857D01*
X157812619Y-104684285D01*
X157752142Y-104805238D01*
X157752142Y-104926190D01*
X158054523Y-104865714D02*
X157994047Y-104986666D01*
X157873095Y-105107619D01*
X157631190Y-105168095D01*
X157207857Y-105168095D01*
X156965952Y-105107619D01*
X156845000Y-104986666D01*
X156784523Y-104865714D01*
X156784523Y-104623809D01*
X156845000Y-104502857D01*
X156965952Y-104381904D01*
X157207857Y-104321428D01*
X157631190Y-104321428D01*
X157873095Y-104381904D01*
X157994047Y-104502857D01*
X158054523Y-104623809D01*
X158054523Y-104865714D01*
X156784523Y-103898095D02*
X156784523Y-103111904D01*
X157268333Y-103535238D01*
X157268333Y-103353809D01*
X157328809Y-103232857D01*
X157389285Y-103172380D01*
X157510238Y-103111904D01*
X157812619Y-103111904D01*
X157933571Y-103172380D01*
X157994047Y-103232857D01*
X158054523Y-103353809D01*
X158054523Y-103716666D01*
X157994047Y-103837619D01*
X157933571Y-103898095D01*
%TO.C,Q2*%
X158175476Y-86480952D02*
X158115000Y-86601904D01*
X157994047Y-86722857D01*
X157812619Y-86904285D01*
X157752142Y-87025238D01*
X157752142Y-87146190D01*
X158054523Y-87085714D02*
X157994047Y-87206666D01*
X157873095Y-87327619D01*
X157631190Y-87388095D01*
X157207857Y-87388095D01*
X156965952Y-87327619D01*
X156845000Y-87206666D01*
X156784523Y-87085714D01*
X156784523Y-86843809D01*
X156845000Y-86722857D01*
X156965952Y-86601904D01*
X157207857Y-86541428D01*
X157631190Y-86541428D01*
X157873095Y-86601904D01*
X157994047Y-86722857D01*
X158054523Y-86843809D01*
X158054523Y-87085714D01*
X156905476Y-86057619D02*
X156845000Y-85997142D01*
X156784523Y-85876190D01*
X156784523Y-85573809D01*
X156845000Y-85452857D01*
X156905476Y-85392380D01*
X157026428Y-85331904D01*
X157147380Y-85331904D01*
X157328809Y-85392380D01*
X158054523Y-86118095D01*
X158054523Y-85331904D01*
D10*
%TO.C,J3*%
X136826666Y-78192380D02*
X136826666Y-78906666D01*
X136779047Y-79049523D01*
X136683809Y-79144761D01*
X136540952Y-79192380D01*
X136445714Y-79192380D01*
X137207619Y-78192380D02*
X137826666Y-78192380D01*
X137493333Y-78573333D01*
X137636190Y-78573333D01*
X137731428Y-78620952D01*
X137779047Y-78668571D01*
X137826666Y-78763809D01*
X137826666Y-79001904D01*
X137779047Y-79097142D01*
X137731428Y-79144761D01*
X137636190Y-79192380D01*
X137350476Y-79192380D01*
X137255238Y-79144761D01*
X137207619Y-79097142D01*
%TO.C,J1*%
X174926666Y-83272380D02*
X174926666Y-83986666D01*
X174879047Y-84129523D01*
X174783809Y-84224761D01*
X174640952Y-84272380D01*
X174545714Y-84272380D01*
X175926666Y-84272380D02*
X175355238Y-84272380D01*
X175640952Y-84272380D02*
X175640952Y-83272380D01*
X175545714Y-83415238D01*
X175450476Y-83510476D01*
X175355238Y-83558095D01*
D12*
%TO.C,R6*%
X162142867Y-87060000D02*
G75*
G03*
X162239905Y-85610641I417133J700000D01*
G01*
%TO.C,R5*%
X169762867Y-79440000D02*
G75*
G03*
X169859905Y-77990641I417133J700000D01*
G01*
%TO.C,R4*%
X170880000Y-96937133D02*
G75*
G03*
X169430641Y-96840095I-700000J417133D01*
G01*
%TO.C,J6*%
X156270000Y-62290000D02*
X156270000Y-59630000D01*
X151130000Y-62290000D02*
X156270000Y-62290000D01*
X149860000Y-62290000D02*
X148530000Y-62290000D01*
X151130000Y-59630000D02*
X156270000Y-59630000D01*
X148530000Y-62290000D02*
X148530000Y-60960000D01*
X151130000Y-62290000D02*
X151130000Y-59630000D01*
%TO.C,D2*%
X138360000Y-86360000D02*
X137340000Y-86360000D01*
X131900000Y-84890000D02*
X131900000Y-87830000D01*
X132680000Y-84890000D02*
X132680000Y-87830000D01*
X132920000Y-84890000D02*
X132920000Y-87830000D01*
X137340000Y-84890000D02*
X131900000Y-84890000D01*
X137340000Y-87830000D02*
X137340000Y-84890000D01*
X132800000Y-84890000D02*
X132800000Y-87830000D01*
X131900000Y-87830000D02*
X137340000Y-87830000D01*
X130880000Y-86360000D02*
X131900000Y-86360000D01*
%TO.C,R1*%
X164682867Y-76900000D02*
G75*
G03*
X164779905Y-75450641I417133J700000D01*
G01*
%TO.C,J2*%
X138370000Y-62230000D02*
X138370000Y-62290000D01*
X138370000Y-62290000D02*
X141030000Y-62290000D01*
X138370000Y-60960000D02*
X138370000Y-59630000D01*
X138370000Y-62230000D02*
X141030000Y-62230000D01*
X141030000Y-62230000D02*
X141030000Y-62290000D01*
X138370000Y-59630000D02*
X139700000Y-59630000D01*
D13*
%TO.C,Q1*%
X151560000Y-71945000D02*
X151560000Y-65215000D01*
X151560000Y-65215000D02*
X145340000Y-65215000D01*
X145340000Y-71945000D02*
X151560000Y-71945000D01*
D14*
X155520000Y-70980000D02*
X155520000Y-70980000D01*
X155520000Y-70780000D02*
X155520000Y-70780000D01*
X155520000Y-70980000D02*
G75*
G03*
X155520000Y-70780000I0J100000D01*
G01*
X155520000Y-70780000D02*
G75*
G03*
X155520000Y-70980000I0J-100000D01*
G01*
D12*
%TO.C,D3*%
X131900000Y-105610000D02*
X137340000Y-105610000D01*
X131900000Y-102670000D02*
X131900000Y-105610000D01*
X137340000Y-105610000D02*
X137340000Y-102670000D01*
X130880000Y-104140000D02*
X131900000Y-104140000D01*
X132680000Y-102670000D02*
X132680000Y-105610000D01*
X137340000Y-102670000D02*
X131900000Y-102670000D01*
X132920000Y-102670000D02*
X132920000Y-105610000D01*
X132800000Y-102670000D02*
X132800000Y-105610000D01*
X138360000Y-104140000D02*
X137340000Y-104140000D01*
%TO.C,R2*%
X163617133Y-93280000D02*
G75*
G03*
X163520095Y-94729359I-417133J-700000D01*
G01*
%TO.C,D1*%
X132920000Y-67110000D02*
X132920000Y-70050000D01*
X137340000Y-67110000D02*
X131900000Y-67110000D01*
X137340000Y-70050000D02*
X137340000Y-67110000D01*
X131900000Y-70050000D02*
X137340000Y-70050000D01*
X131900000Y-67110000D02*
X131900000Y-70050000D01*
X132680000Y-67110000D02*
X132680000Y-70050000D01*
X130880000Y-68580000D02*
X131900000Y-68580000D01*
X132800000Y-67110000D02*
X132800000Y-70050000D01*
X138360000Y-68580000D02*
X137340000Y-68580000D01*
%TO.C,R3*%
X161860000Y-103082867D02*
G75*
G03*
X163309359Y-103179905I700000J-417133D01*
G01*
%TO.C,J8*%
X166430000Y-67310000D02*
X166430000Y-67370000D01*
X163770000Y-67310000D02*
X166430000Y-67310000D01*
X163770000Y-66040000D02*
X163770000Y-64710000D01*
X163770000Y-67310000D02*
X163770000Y-67370000D01*
X163770000Y-64710000D02*
X165100000Y-64710000D01*
X163770000Y-67370000D02*
X166430000Y-67370000D01*
%TO.C,J4*%
X138370000Y-97790000D02*
X141030000Y-97790000D01*
X138370000Y-96520000D02*
X138370000Y-95190000D01*
X138370000Y-97790000D02*
X138370000Y-97850000D01*
X138370000Y-97850000D02*
X141030000Y-97850000D01*
X138370000Y-95190000D02*
X139700000Y-95190000D01*
X141030000Y-97790000D02*
X141030000Y-97850000D01*
%TO.C,J5*%
X128210000Y-62290000D02*
X130870000Y-62290000D01*
X128210000Y-62230000D02*
X130870000Y-62230000D01*
X128210000Y-60960000D02*
X128210000Y-59630000D01*
X130870000Y-62230000D02*
X130870000Y-62290000D01*
X128210000Y-62230000D02*
X128210000Y-62290000D01*
X128210000Y-59630000D02*
X129540000Y-59630000D01*
D14*
%TO.C,Q3*%
X155520000Y-106280000D02*
X155520000Y-106280000D01*
D13*
X145340000Y-107245000D02*
X151560000Y-107245000D01*
D14*
X155520000Y-106080000D02*
X155520000Y-106080000D01*
D13*
X151560000Y-100515000D02*
X145340000Y-100515000D01*
X151560000Y-107245000D02*
X151560000Y-100515000D01*
D14*
X155520000Y-106080000D02*
G75*
G03*
X155520000Y-106280000I0J-100000D01*
G01*
X155520000Y-106280000D02*
G75*
G03*
X155520000Y-106080000I0J100000D01*
G01*
%TO.C,Q2*%
X155520000Y-88760000D02*
X155520000Y-88760000D01*
D13*
X145340000Y-89725000D02*
X151560000Y-89725000D01*
D14*
X155520000Y-88560000D02*
X155520000Y-88560000D01*
D13*
X151560000Y-82995000D02*
X145340000Y-82995000D01*
X151560000Y-89725000D02*
X151560000Y-82995000D01*
D14*
X155520000Y-88760000D02*
G75*
G03*
X155520000Y-88560000I0J100000D01*
G01*
X155520000Y-88560000D02*
G75*
G03*
X155520000Y-88760000I0J-100000D01*
G01*
D12*
%TO.C,J3*%
X138370000Y-80010000D02*
X141030000Y-80010000D01*
X141030000Y-80010000D02*
X141030000Y-80070000D01*
X138370000Y-78740000D02*
X138370000Y-77410000D01*
X138370000Y-80070000D02*
X141030000Y-80070000D01*
X138370000Y-77410000D02*
X139700000Y-77410000D01*
X138370000Y-80010000D02*
X138370000Y-80070000D01*
%TO.C,J1*%
X168850000Y-90230000D02*
X171510000Y-90230000D01*
X168850000Y-85090000D02*
X168850000Y-90230000D01*
X171510000Y-85090000D02*
X171510000Y-90230000D01*
X168850000Y-83820000D02*
X168850000Y-82490000D01*
X168850000Y-82490000D02*
X170180000Y-82490000D01*
X168850000Y-85090000D02*
X171510000Y-85090000D01*
%TD*%
M02*
