%TF.GenerationSoftware,KiCad,Pcbnew,(6.0.1-0)*%
%TF.CreationDate,2022-02-23T15:31:50-05:00*%
%TF.ProjectId,PCB - Controls,50434220-2d20-4436-9f6e-74726f6c732e,rev?*%
%TF.SameCoordinates,Original*%
%TF.FileFunction,Copper,L2,Bot*%
%TF.FilePolarity,Positive*%
%FSLAX46Y46*%
G04 Gerber Fmt 4.6, Leading zero omitted, Abs format (unit mm)*
G04 Created by KiCad (PCBNEW (6.0.1-0)) date 2022-02-23 15:31:50*
%MOMM*%
%LPD*%
G01*
G04 APERTURE LIST*
%TA.AperFunction,ComponentPad*%
%ADD10C,1.400000*%
%TD*%
%TA.AperFunction,ComponentPad*%
%ADD11O,1.400000X1.400000*%
%TD*%
%TA.AperFunction,ComponentPad*%
%ADD12R,1.700000X1.700000*%
%TD*%
%TA.AperFunction,ComponentPad*%
%ADD13O,1.700000X1.700000*%
%TD*%
%TA.AperFunction,ComponentPad*%
%ADD14R,2.200000X2.200000*%
%TD*%
%TA.AperFunction,ComponentPad*%
%ADD15O,2.200000X2.200000*%
%TD*%
%TA.AperFunction,Conductor*%
%ADD16C,0.250000*%
%TD*%
G04 APERTURE END LIST*
D10*
%TO.P,R6,1*%
%TO.N,Net-(J1-Pad2)*%
X162560000Y-86360000D03*
D11*
%TO.P,R6,2*%
%TO.N,Net-(Q2-Pad1)*%
X160660000Y-86360000D03*
%TD*%
D10*
%TO.P,R5,1*%
%TO.N,Net-(J1-Pad1)*%
X170180000Y-78740000D03*
D11*
%TO.P,R5,2*%
%TO.N,Net-(Q1-Pad1)*%
X168280000Y-78740000D03*
%TD*%
D10*
%TO.P,R4,1*%
%TO.N,Net-(J1-Pad3)*%
X170180000Y-96520000D03*
D11*
%TO.P,R4,2*%
%TO.N,Net-(Q3-Pad1)*%
X170180000Y-98420000D03*
%TD*%
D12*
%TO.P,J6,1,Pin_1*%
%TO.N,Net-(D1-Pad1)*%
X149860000Y-60960000D03*
D13*
%TO.P,J6,2,Pin_2*%
X152400000Y-60960000D03*
%TO.P,J6,3,Pin_3*%
X154940000Y-60960000D03*
%TD*%
D14*
%TO.P,D2,1,K*%
%TO.N,Net-(D1-Pad1)*%
X129540000Y-86360000D03*
D15*
%TO.P,D2,2,A*%
%TO.N,Net-(D2-Pad2)*%
X139700000Y-86360000D03*
%TD*%
D10*
%TO.P,R1,1*%
%TO.N,Net-(Q1-Pad1)*%
X165100000Y-76200000D03*
D11*
%TO.P,R1,2*%
%TO.N,GND*%
X163200000Y-76200000D03*
%TD*%
D12*
%TO.P,J2,1,Pin_1*%
%TO.N,Net-(D1-Pad2)*%
X139700000Y-60960000D03*
%TD*%
D14*
%TO.P,D3,1,K*%
%TO.N,Net-(D1-Pad1)*%
X129540000Y-104140000D03*
D15*
%TO.P,D3,2,A*%
%TO.N,Net-(D3-Pad2)*%
X139700000Y-104140000D03*
%TD*%
D10*
%TO.P,R2,1*%
%TO.N,Net-(Q2-Pad1)*%
X163200000Y-93980000D03*
D11*
%TO.P,R2,2*%
%TO.N,GND*%
X165100000Y-93980000D03*
%TD*%
D14*
%TO.P,D1,1,K*%
%TO.N,Net-(D1-Pad1)*%
X129540000Y-68580000D03*
D15*
%TO.P,D1,2,A*%
%TO.N,Net-(D1-Pad2)*%
X139700000Y-68580000D03*
%TD*%
D10*
%TO.P,R3,1*%
%TO.N,Net-(Q3-Pad1)*%
X162560000Y-103500000D03*
D11*
%TO.P,R3,2*%
%TO.N,GND*%
X162560000Y-101600000D03*
%TD*%
D12*
%TO.P,J8,1,Pin_1*%
%TO.N,GND*%
X165100000Y-66040000D03*
%TD*%
%TO.P,J4,1,Pin_1*%
%TO.N,Net-(D3-Pad2)*%
X139700000Y-96520000D03*
%TD*%
%TO.P,J5,1,Pin_1*%
%TO.N,Net-(D1-Pad1)*%
X129540000Y-60960000D03*
%TD*%
%TO.P,J3,1,Pin_1*%
%TO.N,Net-(D2-Pad2)*%
X139700000Y-78740000D03*
%TD*%
%TO.P,J1,1,Pin_1*%
%TO.N,Net-(J1-Pad1)*%
X170180000Y-83820000D03*
D13*
%TO.P,J1,2,Pin_2*%
%TO.N,Net-(J1-Pad2)*%
X170180000Y-86360000D03*
%TO.P,J1,3,Pin_3*%
%TO.N,Net-(J1-Pad3)*%
X170180000Y-88900000D03*
%TD*%
D16*
%TO.N,Net-(D1-Pad1)*%
X129540000Y-60960000D02*
X132080000Y-58420000D01*
X132080000Y-58420000D02*
X147320000Y-58420000D01*
X147320000Y-58420000D02*
X149860000Y-60960000D01*
%TO.N,GND*%
X163200000Y-76200000D02*
X162560000Y-76840000D01*
X162560000Y-76840000D02*
X162560000Y-83820000D01*
X162560000Y-83820000D02*
X165100000Y-86360000D01*
X165100000Y-86360000D02*
X165100000Y-93980000D01*
X165100000Y-66040000D02*
X165100000Y-71120000D01*
X165100000Y-71120000D02*
X163200000Y-73020000D01*
X163200000Y-73020000D02*
X163200000Y-76200000D01*
%TD*%
%TA.AperFunction,Conductor*%
%TO.N,GND*%
G36*
X179774121Y-48788002D02*
G01*
X179820614Y-48841658D01*
X179832000Y-48894000D01*
X179832000Y-118746000D01*
X179811998Y-118814121D01*
X179758342Y-118860614D01*
X179706000Y-118872000D01*
X117474000Y-118872000D01*
X117405879Y-118851998D01*
X117359386Y-118798342D01*
X117348000Y-118746000D01*
X117348000Y-114432703D01*
X119810743Y-114432703D01*
X119848268Y-114717734D01*
X119924129Y-114995036D01*
X120036923Y-115259476D01*
X120184561Y-115506161D01*
X120364313Y-115730528D01*
X120572851Y-115928423D01*
X120806317Y-116096186D01*
X120810112Y-116098195D01*
X120810113Y-116098196D01*
X120831869Y-116109715D01*
X121060392Y-116230712D01*
X121330373Y-116329511D01*
X121611264Y-116390755D01*
X121639841Y-116393004D01*
X121834282Y-116408307D01*
X121834291Y-116408307D01*
X121836739Y-116408500D01*
X121992271Y-116408500D01*
X121994407Y-116408354D01*
X121994418Y-116408354D01*
X122202548Y-116394165D01*
X122202554Y-116394164D01*
X122206825Y-116393873D01*
X122211020Y-116393004D01*
X122211022Y-116393004D01*
X122347584Y-116364723D01*
X122488342Y-116335574D01*
X122759343Y-116239607D01*
X123014812Y-116107750D01*
X123018313Y-116105289D01*
X123018317Y-116105287D01*
X123132418Y-116025095D01*
X123250023Y-115942441D01*
X123460622Y-115746740D01*
X123642713Y-115524268D01*
X123792927Y-115279142D01*
X123908483Y-115015898D01*
X123987244Y-114739406D01*
X124027751Y-114454784D01*
X124027845Y-114436951D01*
X124027867Y-114432703D01*
X173150743Y-114432703D01*
X173188268Y-114717734D01*
X173264129Y-114995036D01*
X173376923Y-115259476D01*
X173524561Y-115506161D01*
X173704313Y-115730528D01*
X173912851Y-115928423D01*
X174146317Y-116096186D01*
X174150112Y-116098195D01*
X174150113Y-116098196D01*
X174171869Y-116109715D01*
X174400392Y-116230712D01*
X174670373Y-116329511D01*
X174951264Y-116390755D01*
X174979841Y-116393004D01*
X175174282Y-116408307D01*
X175174291Y-116408307D01*
X175176739Y-116408500D01*
X175332271Y-116408500D01*
X175334407Y-116408354D01*
X175334418Y-116408354D01*
X175542548Y-116394165D01*
X175542554Y-116394164D01*
X175546825Y-116393873D01*
X175551020Y-116393004D01*
X175551022Y-116393004D01*
X175687584Y-116364723D01*
X175828342Y-116335574D01*
X176099343Y-116239607D01*
X176354812Y-116107750D01*
X176358313Y-116105289D01*
X176358317Y-116105287D01*
X176472418Y-116025095D01*
X176590023Y-115942441D01*
X176800622Y-115746740D01*
X176982713Y-115524268D01*
X177132927Y-115279142D01*
X177248483Y-115015898D01*
X177327244Y-114739406D01*
X177367751Y-114454784D01*
X177367845Y-114436951D01*
X177369235Y-114171583D01*
X177369235Y-114171576D01*
X177369257Y-114167297D01*
X177331732Y-113882266D01*
X177255871Y-113604964D01*
X177143077Y-113340524D01*
X176995439Y-113093839D01*
X176815687Y-112869472D01*
X176607149Y-112671577D01*
X176373683Y-112503814D01*
X176351843Y-112492250D01*
X176328654Y-112479972D01*
X176119608Y-112369288D01*
X175849627Y-112270489D01*
X175568736Y-112209245D01*
X175537685Y-112206801D01*
X175345718Y-112191693D01*
X175345709Y-112191693D01*
X175343261Y-112191500D01*
X175187729Y-112191500D01*
X175185593Y-112191646D01*
X175185582Y-112191646D01*
X174977452Y-112205835D01*
X174977446Y-112205836D01*
X174973175Y-112206127D01*
X174968980Y-112206996D01*
X174968978Y-112206996D01*
X174832417Y-112235276D01*
X174691658Y-112264426D01*
X174420657Y-112360393D01*
X174165188Y-112492250D01*
X174161687Y-112494711D01*
X174161683Y-112494713D01*
X174151594Y-112501804D01*
X173929977Y-112657559D01*
X173719378Y-112853260D01*
X173537287Y-113075732D01*
X173387073Y-113320858D01*
X173271517Y-113584102D01*
X173192756Y-113860594D01*
X173152249Y-114145216D01*
X173152227Y-114149505D01*
X173152226Y-114149512D01*
X173150765Y-114428417D01*
X173150743Y-114432703D01*
X124027867Y-114432703D01*
X124029235Y-114171583D01*
X124029235Y-114171576D01*
X124029257Y-114167297D01*
X123991732Y-113882266D01*
X123915871Y-113604964D01*
X123803077Y-113340524D01*
X123655439Y-113093839D01*
X123475687Y-112869472D01*
X123267149Y-112671577D01*
X123033683Y-112503814D01*
X123011843Y-112492250D01*
X122988654Y-112479972D01*
X122779608Y-112369288D01*
X122509627Y-112270489D01*
X122228736Y-112209245D01*
X122197685Y-112206801D01*
X122005718Y-112191693D01*
X122005709Y-112191693D01*
X122003261Y-112191500D01*
X121847729Y-112191500D01*
X121845593Y-112191646D01*
X121845582Y-112191646D01*
X121637452Y-112205835D01*
X121637446Y-112205836D01*
X121633175Y-112206127D01*
X121628980Y-112206996D01*
X121628978Y-112206996D01*
X121492417Y-112235276D01*
X121351658Y-112264426D01*
X121080657Y-112360393D01*
X120825188Y-112492250D01*
X120821687Y-112494711D01*
X120821683Y-112494713D01*
X120811594Y-112501804D01*
X120589977Y-112657559D01*
X120379378Y-112853260D01*
X120197287Y-113075732D01*
X120047073Y-113320858D01*
X119931517Y-113584102D01*
X119852756Y-113860594D01*
X119812249Y-114145216D01*
X119812227Y-114149505D01*
X119812226Y-114149512D01*
X119810765Y-114428417D01*
X119810743Y-114432703D01*
X117348000Y-114432703D01*
X117348000Y-105288134D01*
X127931500Y-105288134D01*
X127938255Y-105350316D01*
X127989385Y-105486705D01*
X128076739Y-105603261D01*
X128193295Y-105690615D01*
X128329684Y-105741745D01*
X128391866Y-105748500D01*
X130688134Y-105748500D01*
X130750316Y-105741745D01*
X130886705Y-105690615D01*
X131003261Y-105603261D01*
X131090615Y-105486705D01*
X131141745Y-105350316D01*
X131148500Y-105288134D01*
X131148500Y-104140000D01*
X138086526Y-104140000D01*
X138106391Y-104392403D01*
X138107545Y-104397210D01*
X138107546Y-104397216D01*
X138143610Y-104547434D01*
X138165495Y-104638591D01*
X138167388Y-104643162D01*
X138167389Y-104643164D01*
X138188929Y-104695165D01*
X138262384Y-104872502D01*
X138394672Y-105088376D01*
X138559102Y-105280898D01*
X138751624Y-105445328D01*
X138967498Y-105577616D01*
X138972068Y-105579509D01*
X138972072Y-105579511D01*
X139042401Y-105608642D01*
X139201409Y-105674505D01*
X139268513Y-105690615D01*
X139442784Y-105732454D01*
X139442790Y-105732455D01*
X139447597Y-105733609D01*
X139700000Y-105753474D01*
X139952403Y-105733609D01*
X139957210Y-105732455D01*
X139957216Y-105732454D01*
X140131487Y-105690615D01*
X140198591Y-105674505D01*
X140357599Y-105608642D01*
X140427928Y-105579511D01*
X140427932Y-105579509D01*
X140432502Y-105577616D01*
X140648376Y-105445328D01*
X140840898Y-105280898D01*
X141005328Y-105088376D01*
X141137616Y-104872502D01*
X141211072Y-104695165D01*
X141232611Y-104643164D01*
X141232612Y-104643162D01*
X141234505Y-104638591D01*
X141256390Y-104547434D01*
X141292454Y-104397216D01*
X141292455Y-104397210D01*
X141293609Y-104392403D01*
X141313474Y-104140000D01*
X141293609Y-103887597D01*
X141234505Y-103641409D01*
X141232611Y-103636836D01*
X141175932Y-103500000D01*
X161346884Y-103500000D01*
X161365314Y-103710655D01*
X161366738Y-103715968D01*
X161366738Y-103715970D01*
X161414048Y-103892531D01*
X161420044Y-103914910D01*
X161509411Y-104106558D01*
X161630699Y-104279776D01*
X161780224Y-104429301D01*
X161953442Y-104550589D01*
X161958420Y-104552910D01*
X161958423Y-104552912D01*
X162131843Y-104633779D01*
X162145090Y-104639956D01*
X162150398Y-104641378D01*
X162150400Y-104641379D01*
X162344030Y-104693262D01*
X162344032Y-104693262D01*
X162349345Y-104694686D01*
X162560000Y-104713116D01*
X162770655Y-104694686D01*
X162775968Y-104693262D01*
X162775970Y-104693262D01*
X162969600Y-104641379D01*
X162969602Y-104641378D01*
X162974910Y-104639956D01*
X162988157Y-104633779D01*
X163161577Y-104552912D01*
X163161580Y-104552910D01*
X163166558Y-104550589D01*
X163339776Y-104429301D01*
X163489301Y-104279776D01*
X163610589Y-104106558D01*
X163699956Y-103914910D01*
X163705953Y-103892531D01*
X163753262Y-103715970D01*
X163753262Y-103715968D01*
X163754686Y-103710655D01*
X163773116Y-103500000D01*
X163754686Y-103289345D01*
X163728502Y-103191624D01*
X163701379Y-103090400D01*
X163701378Y-103090398D01*
X163699956Y-103085090D01*
X163658363Y-102995894D01*
X163612912Y-102898423D01*
X163612910Y-102898420D01*
X163610589Y-102893442D01*
X163489301Y-102720224D01*
X163407818Y-102638741D01*
X163373792Y-102576429D01*
X163378857Y-102505614D01*
X163407818Y-102460551D01*
X163485019Y-102383350D01*
X163492075Y-102374942D01*
X163607002Y-102210811D01*
X163612479Y-102201323D01*
X163697158Y-102019727D01*
X163700908Y-102009423D01*
X163737866Y-101871497D01*
X163737530Y-101857401D01*
X163729588Y-101854000D01*
X161395561Y-101854000D01*
X161382030Y-101857973D01*
X161380801Y-101866522D01*
X161419092Y-102009423D01*
X161422842Y-102019727D01*
X161507521Y-102201323D01*
X161512998Y-102210811D01*
X161627925Y-102374942D01*
X161634981Y-102383350D01*
X161712182Y-102460551D01*
X161746208Y-102522863D01*
X161741143Y-102593678D01*
X161712182Y-102638741D01*
X161630699Y-102720224D01*
X161509411Y-102893442D01*
X161507090Y-102898420D01*
X161507088Y-102898423D01*
X161461637Y-102995894D01*
X161420044Y-103085090D01*
X161418622Y-103090398D01*
X161418621Y-103090400D01*
X161391498Y-103191624D01*
X161365314Y-103289345D01*
X161346884Y-103500000D01*
X141175932Y-103500000D01*
X141139511Y-103412072D01*
X141139509Y-103412068D01*
X141137616Y-103407498D01*
X141005328Y-103191624D01*
X140840898Y-102999102D01*
X140648376Y-102834672D01*
X140432502Y-102702384D01*
X140427932Y-102700491D01*
X140427928Y-102700489D01*
X140203164Y-102607389D01*
X140203162Y-102607388D01*
X140198591Y-102605495D01*
X140113968Y-102585179D01*
X139957216Y-102547546D01*
X139957210Y-102547545D01*
X139952403Y-102546391D01*
X139700000Y-102526526D01*
X139447597Y-102546391D01*
X139442790Y-102547545D01*
X139442784Y-102547546D01*
X139286032Y-102585179D01*
X139201409Y-102605495D01*
X139196838Y-102607388D01*
X139196836Y-102607389D01*
X138972072Y-102700489D01*
X138972068Y-102700491D01*
X138967498Y-102702384D01*
X138751624Y-102834672D01*
X138559102Y-102999102D01*
X138394672Y-103191624D01*
X138262384Y-103407498D01*
X138260491Y-103412068D01*
X138260489Y-103412072D01*
X138167389Y-103636836D01*
X138165495Y-103641409D01*
X138106391Y-103887597D01*
X138086526Y-104140000D01*
X131148500Y-104140000D01*
X131148500Y-102991866D01*
X131141745Y-102929684D01*
X131090615Y-102793295D01*
X131003261Y-102676739D01*
X130886705Y-102589385D01*
X130750316Y-102538255D01*
X130688134Y-102531500D01*
X128391866Y-102531500D01*
X128329684Y-102538255D01*
X128193295Y-102589385D01*
X128076739Y-102676739D01*
X127989385Y-102793295D01*
X127938255Y-102929684D01*
X127931500Y-102991866D01*
X127931500Y-105288134D01*
X117348000Y-105288134D01*
X117348000Y-101328503D01*
X161382134Y-101328503D01*
X161382470Y-101342599D01*
X161390412Y-101346000D01*
X162287885Y-101346000D01*
X162303124Y-101341525D01*
X162304329Y-101340135D01*
X162306000Y-101332452D01*
X162306000Y-101327885D01*
X162814000Y-101327885D01*
X162818475Y-101343124D01*
X162819865Y-101344329D01*
X162827548Y-101346000D01*
X163724439Y-101346000D01*
X163737970Y-101342027D01*
X163739199Y-101333478D01*
X163700908Y-101190577D01*
X163697158Y-101180273D01*
X163612479Y-100998677D01*
X163607002Y-100989189D01*
X163492075Y-100825058D01*
X163485019Y-100816650D01*
X163343350Y-100674981D01*
X163334942Y-100667925D01*
X163170811Y-100552998D01*
X163161323Y-100547521D01*
X162979727Y-100462842D01*
X162969423Y-100459092D01*
X162831497Y-100422134D01*
X162817401Y-100422470D01*
X162814000Y-100430412D01*
X162814000Y-101327885D01*
X162306000Y-101327885D01*
X162306000Y-100435561D01*
X162302027Y-100422030D01*
X162293478Y-100420801D01*
X162150577Y-100459092D01*
X162140273Y-100462842D01*
X161958677Y-100547521D01*
X161949189Y-100552998D01*
X161785058Y-100667925D01*
X161776650Y-100674981D01*
X161634981Y-100816650D01*
X161627925Y-100825058D01*
X161512998Y-100989189D01*
X161507521Y-100998677D01*
X161422842Y-101180273D01*
X161419092Y-101190577D01*
X161382134Y-101328503D01*
X117348000Y-101328503D01*
X117348000Y-98420000D01*
X168966884Y-98420000D01*
X168985314Y-98630655D01*
X169040044Y-98834910D01*
X169129411Y-99026558D01*
X169250699Y-99199776D01*
X169400224Y-99349301D01*
X169573442Y-99470589D01*
X169578420Y-99472910D01*
X169578423Y-99472912D01*
X169760108Y-99557633D01*
X169765090Y-99559956D01*
X169770398Y-99561378D01*
X169770400Y-99561379D01*
X169964030Y-99613262D01*
X169964032Y-99613262D01*
X169969345Y-99614686D01*
X170180000Y-99633116D01*
X170390655Y-99614686D01*
X170395968Y-99613262D01*
X170395970Y-99613262D01*
X170589600Y-99561379D01*
X170589602Y-99561378D01*
X170594910Y-99559956D01*
X170599892Y-99557633D01*
X170781577Y-99472912D01*
X170781580Y-99472910D01*
X170786558Y-99470589D01*
X170959776Y-99349301D01*
X171109301Y-99199776D01*
X171230589Y-99026558D01*
X171319956Y-98834910D01*
X171374686Y-98630655D01*
X171393116Y-98420000D01*
X171374686Y-98209345D01*
X171319956Y-98005090D01*
X171230589Y-97813442D01*
X171109301Y-97640224D01*
X171028172Y-97559095D01*
X170994146Y-97496783D01*
X170999211Y-97425968D01*
X171028172Y-97380905D01*
X171109301Y-97299776D01*
X171230589Y-97126558D01*
X171319956Y-96934910D01*
X171374686Y-96730655D01*
X171393116Y-96520000D01*
X171374686Y-96309345D01*
X171319956Y-96105090D01*
X171230589Y-95913442D01*
X171109301Y-95740224D01*
X170959776Y-95590699D01*
X170786558Y-95469411D01*
X170781580Y-95467090D01*
X170781577Y-95467088D01*
X170599892Y-95382367D01*
X170599891Y-95382366D01*
X170594910Y-95380044D01*
X170589602Y-95378622D01*
X170589600Y-95378621D01*
X170395970Y-95326738D01*
X170395968Y-95326738D01*
X170390655Y-95325314D01*
X170180000Y-95306884D01*
X169969345Y-95325314D01*
X169964032Y-95326738D01*
X169964030Y-95326738D01*
X169770400Y-95378621D01*
X169770398Y-95378622D01*
X169765090Y-95380044D01*
X169760109Y-95382366D01*
X169760108Y-95382367D01*
X169578423Y-95467088D01*
X169578420Y-95467090D01*
X169573442Y-95469411D01*
X169400224Y-95590699D01*
X169250699Y-95740224D01*
X169129411Y-95913442D01*
X169040044Y-96105090D01*
X168985314Y-96309345D01*
X168966884Y-96520000D01*
X168985314Y-96730655D01*
X169040044Y-96934910D01*
X169129411Y-97126558D01*
X169250699Y-97299776D01*
X169331828Y-97380905D01*
X169365854Y-97443217D01*
X169360789Y-97514032D01*
X169331828Y-97559095D01*
X169250699Y-97640224D01*
X169129411Y-97813442D01*
X169040044Y-98005090D01*
X168985314Y-98209345D01*
X168966884Y-98420000D01*
X117348000Y-98420000D01*
X117348000Y-97418134D01*
X138341500Y-97418134D01*
X138348255Y-97480316D01*
X138399385Y-97616705D01*
X138486739Y-97733261D01*
X138603295Y-97820615D01*
X138739684Y-97871745D01*
X138801866Y-97878500D01*
X140598134Y-97878500D01*
X140660316Y-97871745D01*
X140796705Y-97820615D01*
X140913261Y-97733261D01*
X141000615Y-97616705D01*
X141051745Y-97480316D01*
X141058500Y-97418134D01*
X141058500Y-95621866D01*
X141051745Y-95559684D01*
X141000615Y-95423295D01*
X140913261Y-95306739D01*
X140796705Y-95219385D01*
X140660316Y-95168255D01*
X140598134Y-95161500D01*
X138801866Y-95161500D01*
X138739684Y-95168255D01*
X138603295Y-95219385D01*
X138486739Y-95306739D01*
X138399385Y-95423295D01*
X138348255Y-95559684D01*
X138341500Y-95621866D01*
X138341500Y-97418134D01*
X117348000Y-97418134D01*
X117348000Y-93980000D01*
X161986884Y-93980000D01*
X162005314Y-94190655D01*
X162006738Y-94195968D01*
X162006738Y-94195970D01*
X162021617Y-94251497D01*
X162060044Y-94394910D01*
X162149411Y-94586558D01*
X162270699Y-94759776D01*
X162420224Y-94909301D01*
X162593442Y-95030589D01*
X162598420Y-95032910D01*
X162598423Y-95032912D01*
X162780108Y-95117633D01*
X162785090Y-95119956D01*
X162790398Y-95121378D01*
X162790400Y-95121379D01*
X162984030Y-95173262D01*
X162984032Y-95173262D01*
X162989345Y-95174686D01*
X163200000Y-95193116D01*
X163410655Y-95174686D01*
X163415968Y-95173262D01*
X163415970Y-95173262D01*
X163609600Y-95121379D01*
X163609602Y-95121378D01*
X163614910Y-95119956D01*
X163619892Y-95117633D01*
X163801577Y-95032912D01*
X163801580Y-95032910D01*
X163806558Y-95030589D01*
X163979776Y-94909301D01*
X164061259Y-94827818D01*
X164123571Y-94793792D01*
X164194386Y-94798857D01*
X164239449Y-94827818D01*
X164316650Y-94905019D01*
X164325058Y-94912075D01*
X164489189Y-95027002D01*
X164498677Y-95032479D01*
X164680273Y-95117158D01*
X164690577Y-95120908D01*
X164828503Y-95157866D01*
X164842599Y-95157530D01*
X164846000Y-95149588D01*
X164846000Y-95144439D01*
X165354000Y-95144439D01*
X165357973Y-95157970D01*
X165366522Y-95159199D01*
X165509423Y-95120908D01*
X165519727Y-95117158D01*
X165701323Y-95032479D01*
X165710811Y-95027002D01*
X165874942Y-94912075D01*
X165883350Y-94905019D01*
X166025019Y-94763350D01*
X166032075Y-94754942D01*
X166147002Y-94590811D01*
X166152479Y-94581323D01*
X166237158Y-94399727D01*
X166240908Y-94389423D01*
X166277866Y-94251497D01*
X166277530Y-94237401D01*
X166269588Y-94234000D01*
X165372115Y-94234000D01*
X165356876Y-94238475D01*
X165355671Y-94239865D01*
X165354000Y-94247548D01*
X165354000Y-95144439D01*
X164846000Y-95144439D01*
X164846000Y-93707885D01*
X165354000Y-93707885D01*
X165358475Y-93723124D01*
X165359865Y-93724329D01*
X165367548Y-93726000D01*
X166264439Y-93726000D01*
X166277970Y-93722027D01*
X166279199Y-93713478D01*
X166240908Y-93570577D01*
X166237158Y-93560273D01*
X166152479Y-93378677D01*
X166147002Y-93369189D01*
X166032075Y-93205058D01*
X166025019Y-93196650D01*
X165883350Y-93054981D01*
X165874942Y-93047925D01*
X165710811Y-92932998D01*
X165701323Y-92927521D01*
X165519727Y-92842842D01*
X165509423Y-92839092D01*
X165371497Y-92802134D01*
X165357401Y-92802470D01*
X165354000Y-92810412D01*
X165354000Y-93707885D01*
X164846000Y-93707885D01*
X164846000Y-92815561D01*
X164842027Y-92802030D01*
X164833478Y-92800801D01*
X164690577Y-92839092D01*
X164680273Y-92842842D01*
X164498677Y-92927521D01*
X164489189Y-92932998D01*
X164325058Y-93047925D01*
X164316650Y-93054981D01*
X164239449Y-93132182D01*
X164177137Y-93166208D01*
X164106322Y-93161143D01*
X164061259Y-93132182D01*
X163979776Y-93050699D01*
X163806558Y-92929411D01*
X163801580Y-92927090D01*
X163801577Y-92927088D01*
X163619892Y-92842367D01*
X163619891Y-92842366D01*
X163614910Y-92840044D01*
X163609602Y-92838622D01*
X163609600Y-92838621D01*
X163415970Y-92786738D01*
X163415968Y-92786738D01*
X163410655Y-92785314D01*
X163200000Y-92766884D01*
X162989345Y-92785314D01*
X162984032Y-92786738D01*
X162984030Y-92786738D01*
X162790400Y-92838621D01*
X162790398Y-92838622D01*
X162785090Y-92840044D01*
X162780109Y-92842366D01*
X162780108Y-92842367D01*
X162598423Y-92927088D01*
X162598420Y-92927090D01*
X162593442Y-92929411D01*
X162420224Y-93050699D01*
X162270699Y-93200224D01*
X162149411Y-93373442D01*
X162060044Y-93565090D01*
X162058622Y-93570398D01*
X162058621Y-93570400D01*
X162017993Y-93722027D01*
X162005314Y-93769345D01*
X161986884Y-93980000D01*
X117348000Y-93980000D01*
X117348000Y-88866695D01*
X168817251Y-88866695D01*
X168817548Y-88871848D01*
X168817548Y-88871851D01*
X168823011Y-88966590D01*
X168830110Y-89089715D01*
X168831247Y-89094761D01*
X168831248Y-89094767D01*
X168851119Y-89182939D01*
X168879222Y-89307639D01*
X168963266Y-89514616D01*
X169079987Y-89705088D01*
X169226250Y-89873938D01*
X169398126Y-90016632D01*
X169591000Y-90129338D01*
X169799692Y-90209030D01*
X169804760Y-90210061D01*
X169804763Y-90210062D01*
X169912017Y-90231883D01*
X170018597Y-90253567D01*
X170023772Y-90253757D01*
X170023774Y-90253757D01*
X170236673Y-90261564D01*
X170236677Y-90261564D01*
X170241837Y-90261753D01*
X170246957Y-90261097D01*
X170246959Y-90261097D01*
X170458288Y-90234025D01*
X170458289Y-90234025D01*
X170463416Y-90233368D01*
X170468366Y-90231883D01*
X170672429Y-90170661D01*
X170672434Y-90170659D01*
X170677384Y-90169174D01*
X170877994Y-90070896D01*
X171059860Y-89941173D01*
X171218096Y-89783489D01*
X171277594Y-89700689D01*
X171345435Y-89606277D01*
X171348453Y-89602077D01*
X171447430Y-89401811D01*
X171512370Y-89188069D01*
X171541529Y-88966590D01*
X171543156Y-88900000D01*
X171524852Y-88677361D01*
X171470431Y-88460702D01*
X171381354Y-88255840D01*
X171260014Y-88068277D01*
X171109670Y-87903051D01*
X171105619Y-87899852D01*
X171105615Y-87899848D01*
X170938414Y-87767800D01*
X170938410Y-87767798D01*
X170934359Y-87764598D01*
X170893053Y-87741796D01*
X170843084Y-87691364D01*
X170828312Y-87621921D01*
X170853428Y-87555516D01*
X170880780Y-87528909D01*
X170925316Y-87497142D01*
X171059860Y-87401173D01*
X171218096Y-87243489D01*
X171277594Y-87160689D01*
X171345435Y-87066277D01*
X171348453Y-87062077D01*
X171447430Y-86861811D01*
X171512370Y-86648069D01*
X171541529Y-86426590D01*
X171543156Y-86360000D01*
X171524852Y-86137361D01*
X171470431Y-85920702D01*
X171381354Y-85715840D01*
X171271385Y-85545854D01*
X171262822Y-85532617D01*
X171262820Y-85532614D01*
X171260014Y-85528277D01*
X171245047Y-85511828D01*
X171112798Y-85366488D01*
X171081746Y-85302642D01*
X171090141Y-85232143D01*
X171135317Y-85177375D01*
X171161761Y-85163706D01*
X171268297Y-85123767D01*
X171276705Y-85120615D01*
X171393261Y-85033261D01*
X171480615Y-84916705D01*
X171531745Y-84780316D01*
X171538500Y-84718134D01*
X171538500Y-82921866D01*
X171531745Y-82859684D01*
X171480615Y-82723295D01*
X171393261Y-82606739D01*
X171276705Y-82519385D01*
X171140316Y-82468255D01*
X171078134Y-82461500D01*
X169281866Y-82461500D01*
X169219684Y-82468255D01*
X169083295Y-82519385D01*
X168966739Y-82606739D01*
X168879385Y-82723295D01*
X168828255Y-82859684D01*
X168821500Y-82921866D01*
X168821500Y-84718134D01*
X168828255Y-84780316D01*
X168879385Y-84916705D01*
X168966739Y-85033261D01*
X169083295Y-85120615D01*
X169091704Y-85123767D01*
X169091705Y-85123768D01*
X169200451Y-85164535D01*
X169257216Y-85207176D01*
X169281916Y-85273738D01*
X169266709Y-85343087D01*
X169247316Y-85369568D01*
X169120629Y-85502138D01*
X168994743Y-85686680D01*
X168963753Y-85753442D01*
X168915760Y-85856836D01*
X168900688Y-85889305D01*
X168840989Y-86104570D01*
X168817251Y-86326695D01*
X168817548Y-86331848D01*
X168817548Y-86331851D01*
X168823011Y-86426590D01*
X168830110Y-86549715D01*
X168831247Y-86554761D01*
X168831248Y-86554767D01*
X168845322Y-86617216D01*
X168879222Y-86767639D01*
X168963266Y-86974616D01*
X168965965Y-86979020D01*
X169066863Y-87143671D01*
X169079987Y-87165088D01*
X169226250Y-87333938D01*
X169398126Y-87476632D01*
X169457849Y-87511531D01*
X169471445Y-87519476D01*
X169520169Y-87571114D01*
X169533240Y-87640897D01*
X169506509Y-87706669D01*
X169466055Y-87740027D01*
X169453607Y-87746507D01*
X169449474Y-87749610D01*
X169449471Y-87749612D01*
X169351380Y-87823261D01*
X169274965Y-87880635D01*
X169120629Y-88042138D01*
X168994743Y-88226680D01*
X168900688Y-88429305D01*
X168840989Y-88644570D01*
X168817251Y-88866695D01*
X117348000Y-88866695D01*
X117348000Y-87508134D01*
X127931500Y-87508134D01*
X127938255Y-87570316D01*
X127989385Y-87706705D01*
X128076739Y-87823261D01*
X128193295Y-87910615D01*
X128329684Y-87961745D01*
X128391866Y-87968500D01*
X130688134Y-87968500D01*
X130750316Y-87961745D01*
X130886705Y-87910615D01*
X131003261Y-87823261D01*
X131090615Y-87706705D01*
X131141745Y-87570316D01*
X131148500Y-87508134D01*
X131148500Y-86360000D01*
X138086526Y-86360000D01*
X138106391Y-86612403D01*
X138107545Y-86617210D01*
X138107546Y-86617216D01*
X138116143Y-86653023D01*
X138165495Y-86858591D01*
X138167388Y-86863162D01*
X138167389Y-86863164D01*
X138249782Y-87062077D01*
X138262384Y-87092502D01*
X138394672Y-87308376D01*
X138559102Y-87500898D01*
X138751624Y-87665328D01*
X138967498Y-87797616D01*
X138972068Y-87799509D01*
X138972072Y-87799511D01*
X139176948Y-87884373D01*
X139201409Y-87894505D01*
X139268513Y-87910615D01*
X139442784Y-87952454D01*
X139442790Y-87952455D01*
X139447597Y-87953609D01*
X139700000Y-87973474D01*
X139952403Y-87953609D01*
X139957210Y-87952455D01*
X139957216Y-87952454D01*
X140131487Y-87910615D01*
X140198591Y-87894505D01*
X140223052Y-87884373D01*
X140427928Y-87799511D01*
X140427932Y-87799509D01*
X140432502Y-87797616D01*
X140648376Y-87665328D01*
X140840898Y-87500898D01*
X141005328Y-87308376D01*
X141137616Y-87092502D01*
X141150219Y-87062077D01*
X141232611Y-86863164D01*
X141232612Y-86863162D01*
X141234505Y-86858591D01*
X141283857Y-86653023D01*
X141292454Y-86617216D01*
X141292455Y-86617210D01*
X141293609Y-86612403D01*
X141313474Y-86360000D01*
X159446884Y-86360000D01*
X159465314Y-86570655D01*
X159520044Y-86774910D01*
X159522366Y-86779891D01*
X159522367Y-86779892D01*
X159561198Y-86863164D01*
X159609411Y-86966558D01*
X159730699Y-87139776D01*
X159880224Y-87289301D01*
X160053442Y-87410589D01*
X160058420Y-87412910D01*
X160058423Y-87412912D01*
X160239055Y-87497142D01*
X160245090Y-87499956D01*
X160250398Y-87501378D01*
X160250400Y-87501379D01*
X160444030Y-87553262D01*
X160444032Y-87553262D01*
X160449345Y-87554686D01*
X160660000Y-87573116D01*
X160870655Y-87554686D01*
X160875968Y-87553262D01*
X160875970Y-87553262D01*
X161069600Y-87501379D01*
X161069602Y-87501378D01*
X161074910Y-87499956D01*
X161080945Y-87497142D01*
X161261577Y-87412912D01*
X161261580Y-87412910D01*
X161266558Y-87410589D01*
X161439776Y-87289301D01*
X161520905Y-87208172D01*
X161583217Y-87174146D01*
X161654032Y-87179211D01*
X161699095Y-87208172D01*
X161780224Y-87289301D01*
X161953442Y-87410589D01*
X161958420Y-87412910D01*
X161958423Y-87412912D01*
X162139055Y-87497142D01*
X162145090Y-87499956D01*
X162150398Y-87501378D01*
X162150400Y-87501379D01*
X162344030Y-87553262D01*
X162344032Y-87553262D01*
X162349345Y-87554686D01*
X162560000Y-87573116D01*
X162770655Y-87554686D01*
X162775968Y-87553262D01*
X162775970Y-87553262D01*
X162969600Y-87501379D01*
X162969602Y-87501378D01*
X162974910Y-87499956D01*
X162980945Y-87497142D01*
X163161577Y-87412912D01*
X163161580Y-87412910D01*
X163166558Y-87410589D01*
X163339776Y-87289301D01*
X163489301Y-87139776D01*
X163610589Y-86966558D01*
X163658803Y-86863164D01*
X163697633Y-86779892D01*
X163697634Y-86779891D01*
X163699956Y-86774910D01*
X163754686Y-86570655D01*
X163773116Y-86360000D01*
X163754686Y-86149345D01*
X163699956Y-85945090D01*
X163660935Y-85861409D01*
X163612912Y-85758423D01*
X163612910Y-85758420D01*
X163610589Y-85753442D01*
X163489301Y-85580224D01*
X163339776Y-85430699D01*
X163166558Y-85309411D01*
X163161580Y-85307090D01*
X163161577Y-85307088D01*
X162979892Y-85222367D01*
X162979891Y-85222366D01*
X162974910Y-85220044D01*
X162969602Y-85218622D01*
X162969600Y-85218621D01*
X162775970Y-85166738D01*
X162775968Y-85166738D01*
X162770655Y-85165314D01*
X162560000Y-85146884D01*
X162349345Y-85165314D01*
X162344032Y-85166738D01*
X162344030Y-85166738D01*
X162150400Y-85218621D01*
X162150398Y-85218622D01*
X162145090Y-85220044D01*
X162140109Y-85222366D01*
X162140108Y-85222367D01*
X161958423Y-85307088D01*
X161958420Y-85307090D01*
X161953442Y-85309411D01*
X161780224Y-85430699D01*
X161699095Y-85511828D01*
X161636783Y-85545854D01*
X161565968Y-85540789D01*
X161520905Y-85511828D01*
X161439776Y-85430699D01*
X161266558Y-85309411D01*
X161261580Y-85307090D01*
X161261577Y-85307088D01*
X161079892Y-85222367D01*
X161079891Y-85222366D01*
X161074910Y-85220044D01*
X161069602Y-85218622D01*
X161069600Y-85218621D01*
X160875970Y-85166738D01*
X160875968Y-85166738D01*
X160870655Y-85165314D01*
X160660000Y-85146884D01*
X160449345Y-85165314D01*
X160444032Y-85166738D01*
X160444030Y-85166738D01*
X160250400Y-85218621D01*
X160250398Y-85218622D01*
X160245090Y-85220044D01*
X160240109Y-85222366D01*
X160240108Y-85222367D01*
X160058423Y-85307088D01*
X160058420Y-85307090D01*
X160053442Y-85309411D01*
X159880224Y-85430699D01*
X159730699Y-85580224D01*
X159609411Y-85753442D01*
X159607090Y-85758420D01*
X159607088Y-85758423D01*
X159559065Y-85861409D01*
X159520044Y-85945090D01*
X159465314Y-86149345D01*
X159446884Y-86360000D01*
X141313474Y-86360000D01*
X141293609Y-86107597D01*
X141291687Y-86099588D01*
X141247600Y-85915954D01*
X141234505Y-85861409D01*
X141176176Y-85720590D01*
X141139511Y-85632072D01*
X141139509Y-85632068D01*
X141137616Y-85627498D01*
X141005328Y-85411624D01*
X140840898Y-85219102D01*
X140648376Y-85054672D01*
X140432502Y-84922384D01*
X140427932Y-84920491D01*
X140427928Y-84920489D01*
X140203164Y-84827389D01*
X140203162Y-84827388D01*
X140198591Y-84825495D01*
X140113968Y-84805179D01*
X139957216Y-84767546D01*
X139957210Y-84767545D01*
X139952403Y-84766391D01*
X139700000Y-84746526D01*
X139447597Y-84766391D01*
X139442790Y-84767545D01*
X139442784Y-84767546D01*
X139286032Y-84805179D01*
X139201409Y-84825495D01*
X139196838Y-84827388D01*
X139196836Y-84827389D01*
X138972072Y-84920489D01*
X138972068Y-84920491D01*
X138967498Y-84922384D01*
X138751624Y-85054672D01*
X138559102Y-85219102D01*
X138394672Y-85411624D01*
X138262384Y-85627498D01*
X138260491Y-85632068D01*
X138260489Y-85632072D01*
X138223824Y-85720590D01*
X138165495Y-85861409D01*
X138152400Y-85915954D01*
X138108314Y-86099588D01*
X138106391Y-86107597D01*
X138086526Y-86360000D01*
X131148500Y-86360000D01*
X131148500Y-85211866D01*
X131141745Y-85149684D01*
X131090615Y-85013295D01*
X131003261Y-84896739D01*
X130886705Y-84809385D01*
X130750316Y-84758255D01*
X130688134Y-84751500D01*
X128391866Y-84751500D01*
X128329684Y-84758255D01*
X128193295Y-84809385D01*
X128076739Y-84896739D01*
X127989385Y-85013295D01*
X127938255Y-85149684D01*
X127931500Y-85211866D01*
X127931500Y-87508134D01*
X117348000Y-87508134D01*
X117348000Y-79638134D01*
X138341500Y-79638134D01*
X138348255Y-79700316D01*
X138399385Y-79836705D01*
X138486739Y-79953261D01*
X138603295Y-80040615D01*
X138739684Y-80091745D01*
X138801866Y-80098500D01*
X140598134Y-80098500D01*
X140660316Y-80091745D01*
X140796705Y-80040615D01*
X140913261Y-79953261D01*
X141000615Y-79836705D01*
X141051745Y-79700316D01*
X141058500Y-79638134D01*
X141058500Y-78740000D01*
X167066884Y-78740000D01*
X167085314Y-78950655D01*
X167140044Y-79154910D01*
X167229411Y-79346558D01*
X167350699Y-79519776D01*
X167500224Y-79669301D01*
X167673442Y-79790589D01*
X167678420Y-79792910D01*
X167678423Y-79792912D01*
X167772338Y-79836705D01*
X167865090Y-79879956D01*
X167870398Y-79881378D01*
X167870400Y-79881379D01*
X168064030Y-79933262D01*
X168064032Y-79933262D01*
X168069345Y-79934686D01*
X168280000Y-79953116D01*
X168490655Y-79934686D01*
X168495968Y-79933262D01*
X168495970Y-79933262D01*
X168689600Y-79881379D01*
X168689602Y-79881378D01*
X168694910Y-79879956D01*
X168787662Y-79836705D01*
X168881577Y-79792912D01*
X168881580Y-79792910D01*
X168886558Y-79790589D01*
X169059776Y-79669301D01*
X169140905Y-79588172D01*
X169203217Y-79554146D01*
X169274032Y-79559211D01*
X169319095Y-79588172D01*
X169400224Y-79669301D01*
X169573442Y-79790589D01*
X169578420Y-79792910D01*
X169578423Y-79792912D01*
X169672338Y-79836705D01*
X169765090Y-79879956D01*
X169770398Y-79881378D01*
X169770400Y-79881379D01*
X169964030Y-79933262D01*
X169964032Y-79933262D01*
X169969345Y-79934686D01*
X170180000Y-79953116D01*
X170390655Y-79934686D01*
X170395968Y-79933262D01*
X170395970Y-79933262D01*
X170589600Y-79881379D01*
X170589602Y-79881378D01*
X170594910Y-79879956D01*
X170687662Y-79836705D01*
X170781577Y-79792912D01*
X170781580Y-79792910D01*
X170786558Y-79790589D01*
X170959776Y-79669301D01*
X171109301Y-79519776D01*
X171230589Y-79346558D01*
X171319956Y-79154910D01*
X171374686Y-78950655D01*
X171393116Y-78740000D01*
X171374686Y-78529345D01*
X171319956Y-78325090D01*
X171230589Y-78133442D01*
X171109301Y-77960224D01*
X170959776Y-77810699D01*
X170786558Y-77689411D01*
X170781580Y-77687090D01*
X170781577Y-77687088D01*
X170599892Y-77602367D01*
X170599891Y-77602366D01*
X170594910Y-77600044D01*
X170589602Y-77598622D01*
X170589600Y-77598621D01*
X170395970Y-77546738D01*
X170395968Y-77546738D01*
X170390655Y-77545314D01*
X170180000Y-77526884D01*
X169969345Y-77545314D01*
X169964032Y-77546738D01*
X169964030Y-77546738D01*
X169770400Y-77598621D01*
X169770398Y-77598622D01*
X169765090Y-77600044D01*
X169760109Y-77602366D01*
X169760108Y-77602367D01*
X169578423Y-77687088D01*
X169578420Y-77687090D01*
X169573442Y-77689411D01*
X169400224Y-77810699D01*
X169319095Y-77891828D01*
X169256783Y-77925854D01*
X169185968Y-77920789D01*
X169140905Y-77891828D01*
X169059776Y-77810699D01*
X168886558Y-77689411D01*
X168881580Y-77687090D01*
X168881577Y-77687088D01*
X168699892Y-77602367D01*
X168699891Y-77602366D01*
X168694910Y-77600044D01*
X168689602Y-77598622D01*
X168689600Y-77598621D01*
X168495970Y-77546738D01*
X168495968Y-77546738D01*
X168490655Y-77545314D01*
X168280000Y-77526884D01*
X168069345Y-77545314D01*
X168064032Y-77546738D01*
X168064030Y-77546738D01*
X167870400Y-77598621D01*
X167870398Y-77598622D01*
X167865090Y-77600044D01*
X167860109Y-77602366D01*
X167860108Y-77602367D01*
X167678423Y-77687088D01*
X167678420Y-77687090D01*
X167673442Y-77689411D01*
X167500224Y-77810699D01*
X167350699Y-77960224D01*
X167229411Y-78133442D01*
X167140044Y-78325090D01*
X167085314Y-78529345D01*
X167066884Y-78740000D01*
X141058500Y-78740000D01*
X141058500Y-77841866D01*
X141051745Y-77779684D01*
X141000615Y-77643295D01*
X140913261Y-77526739D01*
X140796705Y-77439385D01*
X140660316Y-77388255D01*
X140598134Y-77381500D01*
X138801866Y-77381500D01*
X138739684Y-77388255D01*
X138603295Y-77439385D01*
X138486739Y-77526739D01*
X138399385Y-77643295D01*
X138348255Y-77779684D01*
X138341500Y-77841866D01*
X138341500Y-79638134D01*
X117348000Y-79638134D01*
X117348000Y-76466522D01*
X162020801Y-76466522D01*
X162059092Y-76609423D01*
X162062842Y-76619727D01*
X162147521Y-76801323D01*
X162152998Y-76810811D01*
X162267925Y-76974942D01*
X162274981Y-76983350D01*
X162416650Y-77125019D01*
X162425058Y-77132075D01*
X162589189Y-77247002D01*
X162598677Y-77252479D01*
X162780273Y-77337158D01*
X162790577Y-77340908D01*
X162928503Y-77377866D01*
X162942599Y-77377530D01*
X162946000Y-77369588D01*
X162946000Y-77364439D01*
X163454000Y-77364439D01*
X163457973Y-77377970D01*
X163466522Y-77379199D01*
X163609423Y-77340908D01*
X163619727Y-77337158D01*
X163801323Y-77252479D01*
X163810811Y-77247002D01*
X163974942Y-77132075D01*
X163983350Y-77125019D01*
X164060551Y-77047818D01*
X164122863Y-77013792D01*
X164193678Y-77018857D01*
X164238741Y-77047818D01*
X164320224Y-77129301D01*
X164493442Y-77250589D01*
X164498420Y-77252910D01*
X164498423Y-77252912D01*
X164680108Y-77337633D01*
X164685090Y-77339956D01*
X164690398Y-77341378D01*
X164690400Y-77341379D01*
X164884030Y-77393262D01*
X164884032Y-77393262D01*
X164889345Y-77394686D01*
X165100000Y-77413116D01*
X165310655Y-77394686D01*
X165315968Y-77393262D01*
X165315970Y-77393262D01*
X165509600Y-77341379D01*
X165509602Y-77341378D01*
X165514910Y-77339956D01*
X165519892Y-77337633D01*
X165701577Y-77252912D01*
X165701580Y-77252910D01*
X165706558Y-77250589D01*
X165879776Y-77129301D01*
X166029301Y-76979776D01*
X166150589Y-76806558D01*
X166239956Y-76614910D01*
X166279717Y-76466522D01*
X166293262Y-76415970D01*
X166293262Y-76415968D01*
X166294686Y-76410655D01*
X166313116Y-76200000D01*
X166294686Y-75989345D01*
X166283072Y-75946000D01*
X166241379Y-75790400D01*
X166241378Y-75790398D01*
X166239956Y-75785090D01*
X166150589Y-75593442D01*
X166029301Y-75420224D01*
X165879776Y-75270699D01*
X165706558Y-75149411D01*
X165701580Y-75147090D01*
X165701577Y-75147088D01*
X165519892Y-75062367D01*
X165519891Y-75062366D01*
X165514910Y-75060044D01*
X165509602Y-75058622D01*
X165509600Y-75058621D01*
X165315970Y-75006738D01*
X165315968Y-75006738D01*
X165310655Y-75005314D01*
X165100000Y-74986884D01*
X164889345Y-75005314D01*
X164884032Y-75006738D01*
X164884030Y-75006738D01*
X164690400Y-75058621D01*
X164690398Y-75058622D01*
X164685090Y-75060044D01*
X164680109Y-75062366D01*
X164680108Y-75062367D01*
X164498423Y-75147088D01*
X164498420Y-75147090D01*
X164493442Y-75149411D01*
X164320224Y-75270699D01*
X164238741Y-75352182D01*
X164176429Y-75386208D01*
X164105614Y-75381143D01*
X164060551Y-75352182D01*
X163983350Y-75274981D01*
X163974942Y-75267925D01*
X163810811Y-75152998D01*
X163801323Y-75147521D01*
X163619727Y-75062842D01*
X163609423Y-75059092D01*
X163471497Y-75022134D01*
X163457401Y-75022470D01*
X163454000Y-75030412D01*
X163454000Y-77364439D01*
X162946000Y-77364439D01*
X162946000Y-76472115D01*
X162941525Y-76456876D01*
X162940135Y-76455671D01*
X162932452Y-76454000D01*
X162035561Y-76454000D01*
X162022030Y-76457973D01*
X162020801Y-76466522D01*
X117348000Y-76466522D01*
X117348000Y-75928503D01*
X162022134Y-75928503D01*
X162022470Y-75942599D01*
X162030412Y-75946000D01*
X162927885Y-75946000D01*
X162943124Y-75941525D01*
X162944329Y-75940135D01*
X162946000Y-75932452D01*
X162946000Y-75035561D01*
X162942027Y-75022030D01*
X162933478Y-75020801D01*
X162790577Y-75059092D01*
X162780273Y-75062842D01*
X162598677Y-75147521D01*
X162589189Y-75152998D01*
X162425058Y-75267925D01*
X162416650Y-75274981D01*
X162274981Y-75416650D01*
X162267925Y-75425058D01*
X162152998Y-75589189D01*
X162147521Y-75598677D01*
X162062842Y-75780273D01*
X162059092Y-75790577D01*
X162022134Y-75928503D01*
X117348000Y-75928503D01*
X117348000Y-69728134D01*
X127931500Y-69728134D01*
X127938255Y-69790316D01*
X127989385Y-69926705D01*
X128076739Y-70043261D01*
X128193295Y-70130615D01*
X128329684Y-70181745D01*
X128391866Y-70188500D01*
X130688134Y-70188500D01*
X130750316Y-70181745D01*
X130886705Y-70130615D01*
X131003261Y-70043261D01*
X131090615Y-69926705D01*
X131141745Y-69790316D01*
X131148500Y-69728134D01*
X131148500Y-68580000D01*
X138086526Y-68580000D01*
X138106391Y-68832403D01*
X138165495Y-69078591D01*
X138262384Y-69312502D01*
X138394672Y-69528376D01*
X138559102Y-69720898D01*
X138751624Y-69885328D01*
X138967498Y-70017616D01*
X138972068Y-70019509D01*
X138972072Y-70019511D01*
X139042401Y-70048642D01*
X139201409Y-70114505D01*
X139268513Y-70130615D01*
X139442784Y-70172454D01*
X139442790Y-70172455D01*
X139447597Y-70173609D01*
X139700000Y-70193474D01*
X139952403Y-70173609D01*
X139957210Y-70172455D01*
X139957216Y-70172454D01*
X140131487Y-70130615D01*
X140198591Y-70114505D01*
X140357599Y-70048642D01*
X140427928Y-70019511D01*
X140427932Y-70019509D01*
X140432502Y-70017616D01*
X140648376Y-69885328D01*
X140840898Y-69720898D01*
X141005328Y-69528376D01*
X141137616Y-69312502D01*
X141234505Y-69078591D01*
X141293609Y-68832403D01*
X141313474Y-68580000D01*
X141293609Y-68327597D01*
X141234505Y-68081409D01*
X141137616Y-67847498D01*
X141005328Y-67631624D01*
X140840898Y-67439102D01*
X140648376Y-67274672D01*
X140432502Y-67142384D01*
X140427932Y-67140491D01*
X140427928Y-67140489D01*
X140203164Y-67047389D01*
X140203162Y-67047388D01*
X140198591Y-67045495D01*
X140113968Y-67025179D01*
X139957216Y-66987546D01*
X139957210Y-66987545D01*
X139952403Y-66986391D01*
X139700000Y-66966526D01*
X139447597Y-66986391D01*
X139442790Y-66987545D01*
X139442784Y-66987546D01*
X139286032Y-67025179D01*
X139201409Y-67045495D01*
X139196838Y-67047388D01*
X139196836Y-67047389D01*
X138972072Y-67140489D01*
X138972068Y-67140491D01*
X138967498Y-67142384D01*
X138751624Y-67274672D01*
X138559102Y-67439102D01*
X138394672Y-67631624D01*
X138262384Y-67847498D01*
X138165495Y-68081409D01*
X138106391Y-68327597D01*
X138086526Y-68580000D01*
X131148500Y-68580000D01*
X131148500Y-67431866D01*
X131141745Y-67369684D01*
X131090615Y-67233295D01*
X131003261Y-67116739D01*
X130886705Y-67029385D01*
X130750316Y-66978255D01*
X130688134Y-66971500D01*
X128391866Y-66971500D01*
X128329684Y-66978255D01*
X128193295Y-67029385D01*
X128076739Y-67116739D01*
X127989385Y-67233295D01*
X127938255Y-67369684D01*
X127931500Y-67431866D01*
X127931500Y-69728134D01*
X117348000Y-69728134D01*
X117348000Y-66934669D01*
X163742001Y-66934669D01*
X163742371Y-66941490D01*
X163747895Y-66992352D01*
X163751521Y-67007604D01*
X163796676Y-67128054D01*
X163805214Y-67143649D01*
X163881715Y-67245724D01*
X163894276Y-67258285D01*
X163996351Y-67334786D01*
X164011946Y-67343324D01*
X164132394Y-67388478D01*
X164147649Y-67392105D01*
X164198514Y-67397631D01*
X164205328Y-67398000D01*
X164827885Y-67398000D01*
X164843124Y-67393525D01*
X164844329Y-67392135D01*
X164846000Y-67384452D01*
X164846000Y-67379884D01*
X165354000Y-67379884D01*
X165358475Y-67395123D01*
X165359865Y-67396328D01*
X165367548Y-67397999D01*
X165994669Y-67397999D01*
X166001490Y-67397629D01*
X166052352Y-67392105D01*
X166067604Y-67388479D01*
X166188054Y-67343324D01*
X166203649Y-67334786D01*
X166305724Y-67258285D01*
X166318285Y-67245724D01*
X166394786Y-67143649D01*
X166403324Y-67128054D01*
X166448478Y-67007606D01*
X166452105Y-66992351D01*
X166457631Y-66941486D01*
X166458000Y-66934672D01*
X166458000Y-66312115D01*
X166453525Y-66296876D01*
X166452135Y-66295671D01*
X166444452Y-66294000D01*
X165372115Y-66294000D01*
X165356876Y-66298475D01*
X165355671Y-66299865D01*
X165354000Y-66307548D01*
X165354000Y-67379884D01*
X164846000Y-67379884D01*
X164846000Y-66312115D01*
X164841525Y-66296876D01*
X164840135Y-66295671D01*
X164832452Y-66294000D01*
X163760116Y-66294000D01*
X163744877Y-66298475D01*
X163743672Y-66299865D01*
X163742001Y-66307548D01*
X163742001Y-66934669D01*
X117348000Y-66934669D01*
X117348000Y-65767885D01*
X163742000Y-65767885D01*
X163746475Y-65783124D01*
X163747865Y-65784329D01*
X163755548Y-65786000D01*
X164827885Y-65786000D01*
X164843124Y-65781525D01*
X164844329Y-65780135D01*
X164846000Y-65772452D01*
X164846000Y-65767885D01*
X165354000Y-65767885D01*
X165358475Y-65783124D01*
X165359865Y-65784329D01*
X165367548Y-65786000D01*
X166439884Y-65786000D01*
X166455123Y-65781525D01*
X166456328Y-65780135D01*
X166457999Y-65772452D01*
X166457999Y-65145331D01*
X166457629Y-65138510D01*
X166452105Y-65087648D01*
X166448479Y-65072396D01*
X166403324Y-64951946D01*
X166394786Y-64936351D01*
X166318285Y-64834276D01*
X166305724Y-64821715D01*
X166203649Y-64745214D01*
X166188054Y-64736676D01*
X166067606Y-64691522D01*
X166052351Y-64687895D01*
X166001486Y-64682369D01*
X165994672Y-64682000D01*
X165372115Y-64682000D01*
X165356876Y-64686475D01*
X165355671Y-64687865D01*
X165354000Y-64695548D01*
X165354000Y-65767885D01*
X164846000Y-65767885D01*
X164846000Y-64700116D01*
X164841525Y-64684877D01*
X164840135Y-64683672D01*
X164832452Y-64682001D01*
X164205331Y-64682001D01*
X164198510Y-64682371D01*
X164147648Y-64687895D01*
X164132396Y-64691521D01*
X164011946Y-64736676D01*
X163996351Y-64745214D01*
X163894276Y-64821715D01*
X163881715Y-64834276D01*
X163805214Y-64936351D01*
X163796676Y-64951946D01*
X163751522Y-65072394D01*
X163747895Y-65087649D01*
X163742369Y-65138514D01*
X163742000Y-65145328D01*
X163742000Y-65767885D01*
X117348000Y-65767885D01*
X117348000Y-61858134D01*
X128181500Y-61858134D01*
X128188255Y-61920316D01*
X128239385Y-62056705D01*
X128326739Y-62173261D01*
X128443295Y-62260615D01*
X128579684Y-62311745D01*
X128641866Y-62318500D01*
X130438134Y-62318500D01*
X130500316Y-62311745D01*
X130636705Y-62260615D01*
X130753261Y-62173261D01*
X130840615Y-62056705D01*
X130891745Y-61920316D01*
X130898500Y-61858134D01*
X138341500Y-61858134D01*
X138348255Y-61920316D01*
X138399385Y-62056705D01*
X138486739Y-62173261D01*
X138603295Y-62260615D01*
X138739684Y-62311745D01*
X138801866Y-62318500D01*
X140598134Y-62318500D01*
X140660316Y-62311745D01*
X140796705Y-62260615D01*
X140913261Y-62173261D01*
X141000615Y-62056705D01*
X141051745Y-61920316D01*
X141058500Y-61858134D01*
X141058500Y-60061866D01*
X141051745Y-59999684D01*
X141000615Y-59863295D01*
X140913261Y-59746739D01*
X140796705Y-59659385D01*
X140660316Y-59608255D01*
X140598134Y-59601500D01*
X138801866Y-59601500D01*
X138739684Y-59608255D01*
X138603295Y-59659385D01*
X138486739Y-59746739D01*
X138399385Y-59863295D01*
X138348255Y-59999684D01*
X138341500Y-60061866D01*
X138341500Y-61858134D01*
X130898500Y-61858134D01*
X130898500Y-60549594D01*
X130918502Y-60481473D01*
X130935405Y-60460499D01*
X132305499Y-59090405D01*
X132367811Y-59056379D01*
X132394594Y-59053500D01*
X147005406Y-59053500D01*
X147073527Y-59073502D01*
X147094501Y-59090405D01*
X148464595Y-60460499D01*
X148498621Y-60522811D01*
X148501500Y-60549594D01*
X148501500Y-61858134D01*
X148508255Y-61920316D01*
X148559385Y-62056705D01*
X148646739Y-62173261D01*
X148763295Y-62260615D01*
X148899684Y-62311745D01*
X148961866Y-62318500D01*
X150758134Y-62318500D01*
X150820316Y-62311745D01*
X150956705Y-62260615D01*
X151073261Y-62173261D01*
X151160615Y-62056705D01*
X151182799Y-61997529D01*
X151204598Y-61939382D01*
X151247240Y-61882618D01*
X151313802Y-61857918D01*
X151383150Y-61873126D01*
X151417817Y-61901114D01*
X151446250Y-61933938D01*
X151618126Y-62076632D01*
X151811000Y-62189338D01*
X152019692Y-62269030D01*
X152024760Y-62270061D01*
X152024763Y-62270062D01*
X152132017Y-62291883D01*
X152238597Y-62313567D01*
X152243772Y-62313757D01*
X152243774Y-62313757D01*
X152456673Y-62321564D01*
X152456677Y-62321564D01*
X152461837Y-62321753D01*
X152466957Y-62321097D01*
X152466959Y-62321097D01*
X152678288Y-62294025D01*
X152678289Y-62294025D01*
X152683416Y-62293368D01*
X152688366Y-62291883D01*
X152892429Y-62230661D01*
X152892434Y-62230659D01*
X152897384Y-62229174D01*
X153097994Y-62130896D01*
X153279860Y-62001173D01*
X153438096Y-61843489D01*
X153568453Y-61662077D01*
X153569776Y-61663028D01*
X153616645Y-61619857D01*
X153686580Y-61607625D01*
X153752026Y-61635144D01*
X153779875Y-61666994D01*
X153839987Y-61765088D01*
X153986250Y-61933938D01*
X154158126Y-62076632D01*
X154351000Y-62189338D01*
X154559692Y-62269030D01*
X154564760Y-62270061D01*
X154564763Y-62270062D01*
X154672017Y-62291883D01*
X154778597Y-62313567D01*
X154783772Y-62313757D01*
X154783774Y-62313757D01*
X154996673Y-62321564D01*
X154996677Y-62321564D01*
X155001837Y-62321753D01*
X155006957Y-62321097D01*
X155006959Y-62321097D01*
X155218288Y-62294025D01*
X155218289Y-62294025D01*
X155223416Y-62293368D01*
X155228366Y-62291883D01*
X155432429Y-62230661D01*
X155432434Y-62230659D01*
X155437384Y-62229174D01*
X155637994Y-62130896D01*
X155819860Y-62001173D01*
X155978096Y-61843489D01*
X156108453Y-61662077D01*
X156129320Y-61619857D01*
X156205136Y-61466453D01*
X156205137Y-61466451D01*
X156207430Y-61461811D01*
X156272370Y-61248069D01*
X156301529Y-61026590D01*
X156303156Y-60960000D01*
X156284852Y-60737361D01*
X156230431Y-60520702D01*
X156141354Y-60315840D01*
X156020014Y-60128277D01*
X155869670Y-59963051D01*
X155865619Y-59959852D01*
X155865615Y-59959848D01*
X155698414Y-59827800D01*
X155698410Y-59827798D01*
X155694359Y-59824598D01*
X155498789Y-59716638D01*
X155493920Y-59714914D01*
X155493916Y-59714912D01*
X155293087Y-59643795D01*
X155293083Y-59643794D01*
X155288212Y-59642069D01*
X155283119Y-59641162D01*
X155283116Y-59641161D01*
X155073373Y-59603800D01*
X155073367Y-59603799D01*
X155068284Y-59602894D01*
X154994452Y-59601992D01*
X154850081Y-59600228D01*
X154850079Y-59600228D01*
X154844911Y-59600165D01*
X154624091Y-59633955D01*
X154411756Y-59703357D01*
X154213607Y-59806507D01*
X154209474Y-59809610D01*
X154209471Y-59809612D01*
X154039100Y-59937530D01*
X154034965Y-59940635D01*
X154031393Y-59944373D01*
X153923729Y-60057037D01*
X153880629Y-60102138D01*
X153773201Y-60259621D01*
X153718293Y-60304621D01*
X153647768Y-60312792D01*
X153584021Y-60281538D01*
X153563324Y-60257054D01*
X153482822Y-60132617D01*
X153482820Y-60132614D01*
X153480014Y-60128277D01*
X153329670Y-59963051D01*
X153325619Y-59959852D01*
X153325615Y-59959848D01*
X153158414Y-59827800D01*
X153158410Y-59827798D01*
X153154359Y-59824598D01*
X152958789Y-59716638D01*
X152953920Y-59714914D01*
X152953916Y-59714912D01*
X152753087Y-59643795D01*
X152753083Y-59643794D01*
X152748212Y-59642069D01*
X152743119Y-59641162D01*
X152743116Y-59641161D01*
X152533373Y-59603800D01*
X152533367Y-59603799D01*
X152528284Y-59602894D01*
X152454452Y-59601992D01*
X152310081Y-59600228D01*
X152310079Y-59600228D01*
X152304911Y-59600165D01*
X152084091Y-59633955D01*
X151871756Y-59703357D01*
X151673607Y-59806507D01*
X151669474Y-59809610D01*
X151669471Y-59809612D01*
X151499100Y-59937530D01*
X151494965Y-59940635D01*
X151438537Y-59999684D01*
X151414283Y-60025064D01*
X151352759Y-60060494D01*
X151281846Y-60057037D01*
X151224060Y-60015791D01*
X151205207Y-59982243D01*
X151163767Y-59871703D01*
X151160615Y-59863295D01*
X151073261Y-59746739D01*
X150956705Y-59659385D01*
X150820316Y-59608255D01*
X150758134Y-59601500D01*
X149449595Y-59601500D01*
X149381474Y-59581498D01*
X149360500Y-59564595D01*
X147823652Y-58027747D01*
X147816112Y-58019461D01*
X147812000Y-58012982D01*
X147762348Y-57966356D01*
X147759507Y-57963602D01*
X147739770Y-57943865D01*
X147736573Y-57941385D01*
X147727551Y-57933680D01*
X147714116Y-57921064D01*
X147695321Y-57903414D01*
X147688375Y-57899595D01*
X147688372Y-57899593D01*
X147677566Y-57893652D01*
X147661047Y-57882801D01*
X147660583Y-57882441D01*
X147645041Y-57870386D01*
X147637772Y-57867241D01*
X147637768Y-57867238D01*
X147604463Y-57852826D01*
X147593813Y-57847609D01*
X147555060Y-57826305D01*
X147535437Y-57821267D01*
X147516734Y-57814863D01*
X147505420Y-57809967D01*
X147505419Y-57809967D01*
X147498145Y-57806819D01*
X147490322Y-57805580D01*
X147490312Y-57805577D01*
X147454476Y-57799901D01*
X147442856Y-57797495D01*
X147407711Y-57788472D01*
X147407710Y-57788472D01*
X147400030Y-57786500D01*
X147379776Y-57786500D01*
X147360065Y-57784949D01*
X147357534Y-57784548D01*
X147340057Y-57781780D01*
X147332165Y-57782526D01*
X147296039Y-57785941D01*
X147284181Y-57786500D01*
X132158763Y-57786500D01*
X132147579Y-57785973D01*
X132140091Y-57784299D01*
X132132168Y-57784548D01*
X132072033Y-57786438D01*
X132068075Y-57786500D01*
X132040144Y-57786500D01*
X132036229Y-57786995D01*
X132036225Y-57786995D01*
X132036167Y-57787003D01*
X132036138Y-57787006D01*
X132024296Y-57787939D01*
X131980110Y-57789327D01*
X131962744Y-57794372D01*
X131960658Y-57794978D01*
X131941306Y-57798986D01*
X131929068Y-57800532D01*
X131929066Y-57800533D01*
X131921203Y-57801526D01*
X131880086Y-57817806D01*
X131868885Y-57821641D01*
X131826406Y-57833982D01*
X131819587Y-57838015D01*
X131819582Y-57838017D01*
X131808971Y-57844293D01*
X131791221Y-57852990D01*
X131772383Y-57860448D01*
X131765967Y-57865109D01*
X131765966Y-57865110D01*
X131736625Y-57886428D01*
X131726701Y-57892947D01*
X131695460Y-57911422D01*
X131695455Y-57911426D01*
X131688637Y-57915458D01*
X131674313Y-57929782D01*
X131659281Y-57942621D01*
X131642893Y-57954528D01*
X131614712Y-57988593D01*
X131606722Y-57997373D01*
X130039500Y-59564595D01*
X129977188Y-59598621D01*
X129950405Y-59601500D01*
X128641866Y-59601500D01*
X128579684Y-59608255D01*
X128443295Y-59659385D01*
X128326739Y-59746739D01*
X128239385Y-59863295D01*
X128188255Y-59999684D01*
X128181500Y-60061866D01*
X128181500Y-61858134D01*
X117348000Y-61858134D01*
X117348000Y-53472703D01*
X119810743Y-53472703D01*
X119848268Y-53757734D01*
X119924129Y-54035036D01*
X120036923Y-54299476D01*
X120184561Y-54546161D01*
X120364313Y-54770528D01*
X120572851Y-54968423D01*
X120806317Y-55136186D01*
X120810112Y-55138195D01*
X120810113Y-55138196D01*
X120831869Y-55149715D01*
X121060392Y-55270712D01*
X121330373Y-55369511D01*
X121611264Y-55430755D01*
X121639841Y-55433004D01*
X121834282Y-55448307D01*
X121834291Y-55448307D01*
X121836739Y-55448500D01*
X121992271Y-55448500D01*
X121994407Y-55448354D01*
X121994418Y-55448354D01*
X122202548Y-55434165D01*
X122202554Y-55434164D01*
X122206825Y-55433873D01*
X122211020Y-55433004D01*
X122211022Y-55433004D01*
X122347584Y-55404723D01*
X122488342Y-55375574D01*
X122759343Y-55279607D01*
X123014812Y-55147750D01*
X123018313Y-55145289D01*
X123018317Y-55145287D01*
X123132418Y-55065095D01*
X123250023Y-54982441D01*
X123460622Y-54786740D01*
X123642713Y-54564268D01*
X123792927Y-54319142D01*
X123908483Y-54055898D01*
X123987244Y-53779406D01*
X124027751Y-53494784D01*
X124027845Y-53476951D01*
X124027867Y-53472703D01*
X173150743Y-53472703D01*
X173188268Y-53757734D01*
X173264129Y-54035036D01*
X173376923Y-54299476D01*
X173524561Y-54546161D01*
X173704313Y-54770528D01*
X173912851Y-54968423D01*
X174146317Y-55136186D01*
X174150112Y-55138195D01*
X174150113Y-55138196D01*
X174171869Y-55149715D01*
X174400392Y-55270712D01*
X174670373Y-55369511D01*
X174951264Y-55430755D01*
X174979841Y-55433004D01*
X175174282Y-55448307D01*
X175174291Y-55448307D01*
X175176739Y-55448500D01*
X175332271Y-55448500D01*
X175334407Y-55448354D01*
X175334418Y-55448354D01*
X175542548Y-55434165D01*
X175542554Y-55434164D01*
X175546825Y-55433873D01*
X175551020Y-55433004D01*
X175551022Y-55433004D01*
X175687584Y-55404723D01*
X175828342Y-55375574D01*
X176099343Y-55279607D01*
X176354812Y-55147750D01*
X176358313Y-55145289D01*
X176358317Y-55145287D01*
X176472418Y-55065095D01*
X176590023Y-54982441D01*
X176800622Y-54786740D01*
X176982713Y-54564268D01*
X177132927Y-54319142D01*
X177248483Y-54055898D01*
X177327244Y-53779406D01*
X177367751Y-53494784D01*
X177367845Y-53476951D01*
X177369235Y-53211583D01*
X177369235Y-53211576D01*
X177369257Y-53207297D01*
X177331732Y-52922266D01*
X177255871Y-52644964D01*
X177143077Y-52380524D01*
X176995439Y-52133839D01*
X176815687Y-51909472D01*
X176607149Y-51711577D01*
X176373683Y-51543814D01*
X176351843Y-51532250D01*
X176328654Y-51519972D01*
X176119608Y-51409288D01*
X175849627Y-51310489D01*
X175568736Y-51249245D01*
X175537685Y-51246801D01*
X175345718Y-51231693D01*
X175345709Y-51231693D01*
X175343261Y-51231500D01*
X175187729Y-51231500D01*
X175185593Y-51231646D01*
X175185582Y-51231646D01*
X174977452Y-51245835D01*
X174977446Y-51245836D01*
X174973175Y-51246127D01*
X174968980Y-51246996D01*
X174968978Y-51246996D01*
X174832417Y-51275276D01*
X174691658Y-51304426D01*
X174420657Y-51400393D01*
X174165188Y-51532250D01*
X174161687Y-51534711D01*
X174161683Y-51534713D01*
X174151594Y-51541804D01*
X173929977Y-51697559D01*
X173719378Y-51893260D01*
X173537287Y-52115732D01*
X173387073Y-52360858D01*
X173271517Y-52624102D01*
X173192756Y-52900594D01*
X173152249Y-53185216D01*
X173152227Y-53189505D01*
X173152226Y-53189512D01*
X173150765Y-53468417D01*
X173150743Y-53472703D01*
X124027867Y-53472703D01*
X124029235Y-53211583D01*
X124029235Y-53211576D01*
X124029257Y-53207297D01*
X123991732Y-52922266D01*
X123915871Y-52644964D01*
X123803077Y-52380524D01*
X123655439Y-52133839D01*
X123475687Y-51909472D01*
X123267149Y-51711577D01*
X123033683Y-51543814D01*
X123011843Y-51532250D01*
X122988654Y-51519972D01*
X122779608Y-51409288D01*
X122509627Y-51310489D01*
X122228736Y-51249245D01*
X122197685Y-51246801D01*
X122005718Y-51231693D01*
X122005709Y-51231693D01*
X122003261Y-51231500D01*
X121847729Y-51231500D01*
X121845593Y-51231646D01*
X121845582Y-51231646D01*
X121637452Y-51245835D01*
X121637446Y-51245836D01*
X121633175Y-51246127D01*
X121628980Y-51246996D01*
X121628978Y-51246996D01*
X121492417Y-51275276D01*
X121351658Y-51304426D01*
X121080657Y-51400393D01*
X120825188Y-51532250D01*
X120821687Y-51534711D01*
X120821683Y-51534713D01*
X120811594Y-51541804D01*
X120589977Y-51697559D01*
X120379378Y-51893260D01*
X120197287Y-52115732D01*
X120047073Y-52360858D01*
X119931517Y-52624102D01*
X119852756Y-52900594D01*
X119812249Y-53185216D01*
X119812227Y-53189505D01*
X119812226Y-53189512D01*
X119810765Y-53468417D01*
X119810743Y-53472703D01*
X117348000Y-53472703D01*
X117348000Y-48894000D01*
X117368002Y-48825879D01*
X117421658Y-48779386D01*
X117474000Y-48768000D01*
X179706000Y-48768000D01*
X179774121Y-48788002D01*
G37*
%TD.AperFunction*%
%TD*%
M02*
